<?xml version="1.0" encoding="utf-8"?>
<!-- Generator: Adobe Illustrator 24.3.0, SVG Export Plug-In . SVG Version: 6.00 Build 0)  -->
<svg version="1.1" id="Layer_1" xmlns="http://www.w3.org/2000/svg" xmlns:xlink="http://www.w3.org/1999/xlink" x="0px" y="0px"
	 viewBox="0 0 358.9 358.9" style="enable-background:new 0 0 358.9 358.9;" xml:space="preserve">
<style type="text/css">
	.st0{fill:#F4F4F4;stroke:#464654;stroke-width:5.29;stroke-miterlimit:10;}
	.st1{fill:#FA9295;}
	.st2{fill:none;stroke:#464654;stroke-width:5.29;stroke-miterlimit:10;}
	.st3{fill:none;stroke:#464654;stroke-width:5.29;stroke-linecap:round;stroke-linejoin:round;}
</style>
<path class="st0" d="M113.3,90.2h132.2c52.1,0,94.4,42.3,94.4,94.4l0,0V242c0,16.1-13.1,29.2-29.2,29.2H48.1
	c-16.1,0-29.2-13.1-29.2-29.2v-57.4C18.9,132.5,61.1,90.2,113.3,90.2L113.3,90.2z"/>
<path class="st1" d="M139.3,146.2L139.3,146.2c-2.3-0.7-3.6-3-3.2-5.4c2.8-13.8-0.5-33.2-2.3-41.8c-0.5-2.5,1-4.9,3.5-5.5l0,0
	c2.5-0.6,5.1,0.9,5.7,3.4c0,0.1,0,0.1,0,0.2c1.9,9.2,5.4,29.8,2.3,45.6c-0.5,2.5-3,4.2-5.6,3.7C139.6,146.3,139.5,146.2,139.3,146.2
	z"/>
<path class="st1" d="M188.2,143.3L188.2,143.3c-2.3-0.7-3.6-3-3.1-5.4c2.8-13.8-0.5-33.2-2.3-41.8c-0.5-2.5,1-4.9,3.5-5.5l0,0
	c2.5-0.6,5.1,0.9,5.7,3.4c0,0.1,0,0.1,0,0.2c1.9,9.2,5.4,29.8,2.3,45.6c-0.5,2.6-3,4.2-5.6,3.7C188.5,143.4,188.4,143.3,188.2,143.3
	z"/>
<path class="st1" d="M239.9,140.2L239.9,140.2c-2.3-0.7-3.6-3-3.2-5.4c2.8-13.8-0.5-33.2-2.3-41.8c-0.5-2.5,1-4.9,3.5-5.5l0,0
	c2.5-0.6,5.1,0.9,5.7,3.4c0,0.1,0,0.1,0,0.2c1.9,9.2,5.4,29.8,2.3,45.6c-0.5,2.5-3,4.2-5.6,3.7C240.2,140.3,240,140.2,239.9,140.2z"
	/>
<path class="st2" d="M113.3,90.2h132.2c52.1,0,94.4,42.3,94.4,94.4l0,0V242c0,16.1-13.1,29.2-29.2,29.2H48.1
	c-16.1,0-29.2-13.1-29.2-29.2v-57.4C18.9,132.5,61.1,90.2,113.3,90.2C113.3,90.2,113.3,90.2,113.3,90.2z"/>
<path class="st3" d="M178.5,90.3c0,0,7.5,21-1.1,52.7"/>
<path class="st3" d="M229.9,90.3c0,0,7.5,21-1.1,52.7"/>
<path class="st3" d="M130.2,90.3c0,0,7.5,21-1.1,52.7"/>
</svg>
