<?xml version="1.0" encoding="utf-8"?>
<!-- Generator: Adobe Illustrator 24.3.0, SVG Export Plug-In . SVG Version: 6.00 Build 0)  -->
<svg version="1.1" id="Layer_1" xmlns="http://www.w3.org/2000/svg" xmlns:xlink="http://www.w3.org/1999/xlink" x="0px" y="0px"
	 viewBox="0 0 358.9 358.9" style="enable-background:new 0 0 358.9 358.9;" xml:space="preserve">
<style type="text/css">
	.st0{fill:none;}
	.st1{fill:#FA9295;}
	.st2{fill:#464654;}
	.st3{fill:#F4F4F4;stroke:#404041;stroke-width:5.29;stroke-linecap:round;stroke-linejoin:round;}
	.st4{fill:#F4F4F4;stroke:#464654;stroke-width:5.29;stroke-linecap:round;stroke-linejoin:round;}
	.st5{fill:none;stroke:#464654;stroke-width:5.29;stroke-linecap:round;stroke-linejoin:round;}
</style>
<path class="st0" d="M213.6,116.7c0,0,30.4-18,12.9-51.1s-0.4-51.2-0.4-51.2"/>
<path class="st1" d="M218.5,117.4c-1.5,1.2-3.7,0.9-4.8-0.6c-0.1-0.1-0.2-0.3-0.3-0.4l-1.6-2.7l1.8,3l-0.1-0.2
	c-0.9-1.5-0.5-3.4,0.9-4.5c6.5-5,22-20.2,9.1-44.7c-14.3-27.2-6.7-45-2.3-52c1-1.6,3.2-2,4.7-1c0.2,0.1,0.4,0.3,0.5,0.4l0,0
	c1.2,1.1,1.4,2.9,0.6,4.3c-3.5,5.5-10.2,20.8,2.6,45C244.7,92.7,226.3,111.2,218.5,117.4z"/>
<path class="st0" d="M158.4,116.8c0,0,30.4-18,12.9-51.1s-0.4-51.2-0.4-51.2"/>
<path class="st1" d="M163.3,117.5c-1.5,1.2-3.7,0.9-4.8-0.6c-0.1-0.1-0.2-0.2-0.3-0.4l-1.6-2.7l1.8,3l-0.1-0.2
	c-0.9-1.5-0.5-3.4,0.9-4.5c6.5-5,22-20.2,9.1-44.8c-14.3-27.1-6.8-45-2.3-51.9c1-1.6,3.2-2,4.7-1c0.2,0.1,0.3,0.2,0.5,0.4l0,0
	c1.2,1.1,1.4,2.9,0.6,4.3c-3.5,5.5-10.2,20.7,2.6,45C189.5,92.8,171.1,111.3,163.3,117.5z"/>
<path class="st0" d="M103.2,116.4c0,0,30.3-18,12.9-51.1s-0.4-51.2-0.4-51.2"/>
<path class="st1" d="M108.2,117.1c-1.5,1.2-3.7,0.9-4.8-0.6c-0.1-0.1-0.2-0.3-0.3-0.4l-1.6-2.7l1.8,3l-0.1-0.2
	c-0.9-1.5-0.5-3.5,0.9-4.5c6.5-5,22-20.2,9.1-44.7c-14.3-27.2-6.7-45-2.3-52c1-1.6,3.2-2,4.7-1c0.2,0.1,0.3,0.2,0.5,0.4l0,0
	c1.2,1.1,1.4,2.9,0.6,4.3c-3.5,5.5-10.2,20.7,2.6,45C134.3,92.4,115.9,110.9,108.2,117.1z"/>
<path class="st0" d="M205.3,116.7c0,0,30.4-18,12.9-51.1s-0.4-51.2-0.4-51.2"/>
<path class="st2" d="M210.2,117.4c-1.5,1.2-3.7,0.9-4.8-0.6c-0.1-0.1-0.2-0.3-0.3-0.4l0,0l0.1,0.3l-0.1-0.2
	c-0.9-1.5-0.5-3.4,0.9-4.5c6.5-5,22-20.2,9.1-44.8c-14.3-27.1-6.8-45-2.3-51.9c1-1.6,3.2-2,4.7-1c0.2,0.1,0.3,0.2,0.5,0.4l0,0
	c1.2,1.1,1.4,2.9,0.6,4.3c-3.5,5.5-10.2,20.7,2.6,45C236.4,92.8,218,111.3,210.2,117.4z"/>
<path class="st0" d="M150.1,116.8c0,0,30.3-18,12.9-51.1s-0.4-51.2-0.4-51.2"/>
<path class="st2" d="M155,117.5c-1.5,1.2-3.7,0.9-4.8-0.6c-0.1-0.1-0.2-0.2-0.3-0.4l0,0l0.1,0.2l-0.1-0.2c-0.9-1.5-0.5-3.5,0.9-4.5
	c6.5-5,22-20.2,9.1-44.7c-14.3-27.2-6.7-45-2.3-52c1-1.6,3.2-2,4.7-1c0.2,0.1,0.3,0.2,0.5,0.4l0,0c1.2,1.1,1.4,2.9,0.6,4.3
	c-3.5,5.5-10.2,20.7,2.6,45C181.2,92.9,162.8,111.4,155,117.5z"/>
<path class="st0" d="M94.9,116.8c0,0,30.3-18,12.9-51.1s-0.4-51.2-0.4-51.2"/>
<path class="st2" d="M99.8,117.5c-1.5,1.2-3.7,0.9-4.8-0.6c-0.1-0.1-0.2-0.3-0.3-0.4l0.2,0.2l0,0l-0.1-0.2c-0.9-1.5-0.5-3.4,0.9-4.5
	c6.5-5,22-20.2,9.1-44.7c-14.3-27.1-6.7-44.9-2.3-51.9c1-1.6,3.2-2,4.8-1c0.2,0.1,0.3,0.2,0.5,0.4l0,0c1.2,1.1,1.4,2.9,0.6,4.3
	c-3.5,5.5-10.2,20.7,2.6,45C126,92.9,107.6,111.4,99.8,117.5z"/>
<path class="st2" d="M305.8,141.8h-282c-1.9,0-3.4-1.1-3.4-2.5l0,0c0-1.4,1.5-2.5,3.4-2.5h282c1.9,0,3.4,1.1,3.4,2.5l0,0
	C309.2,140.7,307.7,141.8,305.8,141.8z"/>
<path class="st3" d="M256.3,347.3H73.5c-20.7,0-37.6-18.5-37.6-41.2V142.3h258v163.8C293.9,328.8,277,347.3,256.3,347.3z"/>
<path class="st4" d="M294.9,260.7c23.8,0,43-19.3,43-43s-19.3-43-43-43V260.7z"/>
<path class="st1" d="M67.9,170.8h224c2.5,0,4.5,2,4.5,4.5v14c0,2.5-2,4.5-4.5,4.5h-224c-2.5,0-4.5-2-4.5-4.5v-14
	C63.4,172.8,65.4,170.8,67.9,170.8z"/>
<rect x="36.4" y="160.8" class="st2" width="257" height="4"/>
<rect x="36.4" y="176.8" class="st2" width="257" height="5"/>
<path class="st5" d="M256.3,345.3H73.5c-20.7,0-37.6-18.5-37.6-41.2V140.3h258v163.8C293.9,326.8,277,345.3,256.3,345.3z"/>
<path class="st2" d="M247,319.8c18.7-8.2,19.4-26.5,18.8-34.1c-0.1-2,1.2-3.7,3.1-4.1l0,0c2.1-0.4,4.1,1,4.5,3.1
	c0,0.2,0.1,0.3,0.1,0.5c0.5,9.5-0.7,31.9-23.4,41.8c-2,0.8-4.2-0.1-5-2.1c0-0.1-0.1-0.2-0.1-0.3v-0.1
	C244.3,322.6,245.2,320.6,247,319.8z"/>
</svg>
