<svg xmlns="http://www.w3.org/2000/svg" xmlns:xlink="http://www.w3.org/1999/xlink" width="356.73" height="476" viewBox="0 0 356.73 476">
  <defs>
    <style>
      .cls-1 {
        fill: none;
      }

      .cls-2 {
        fill: #774d4b;
      }

      .cls-3, .cls-7 {
        fill: #3f2525;
      }

      .cls-4 {
        clip-path: url(#clip-path);
      }

      .cls-5 {
        fill: #bb6e70;
      }

      .cls-6 {
        fill: #fa9295;
      }

      .cls-7 {
        opacity: 0.3;
      }

      .cls-8 {
        fill: #f7bac0;
      }
    </style>
    <clipPath id="clip-path" transform="translate(3.35)">
      <circle class="cls-1" cx="176.35" cy="246.86" r="176.35"/>
    </clipPath>
  </defs>
  <g id="Layer_2" data-name="Layer 2">
    <g id="Layer_1-2" data-name="Layer 1">
      <g>
        <g>
          <path class="cls-2" d="M195.21,46.86c-2.44,4.36.52,9.78,5.46,10.55,3,.47,6,1,8.89,1.62a204,204,0,0,1,65.73,26.22,206.32,206.32,0,0,1,28.52,21.2c12.78,11.32,32.42,27.78,22.23,47.16,2.43,4.49,4.4,8.34,6.63,12.53,1.06,2,2.73,4.06,3.72,6.09a46.09,46.09,0,0,0,9-14,42.11,42.11,0,0,0-1.95-36.42c-5.85-10.54-15.61-19.19-24.55-27.1a228.47,228.47,0,0,0-28.65-21.55,226.07,226.07,0,0,0-66.59-28.55c-.42-.11-4.2-1.24-4.33-1l4-6.32a8.95,8.95,0,0,0-15-9.8l-8.53,12.58-4.23,6.24C195.43,46.48,195.32,46.67,195.21,46.86Z" transform="translate(3.35)"/>
          <path class="cls-3" d="M326,154c1,1.67,18.15,10.08,21.6-2.61-2.33,12.13-10.8,20.9-12,22.13" transform="translate(3.35)"/>
        </g>
        <g>
          <path class="cls-2" d="M156.46,48.83c2.44,4.36-.52,9.78-5.45,10.55q-4.48.7-8.9,1.62A204.1,204.1,0,0,0,76.38,87.22a207.74,207.74,0,0,0-28.52,21.2c-12.78,11.32-32.41,27.78-22.22,47.17-2.43,4.48-4.4,8.33-6.63,12.53-1.07,2-2.74,4-3.72,6.09a46,46,0,0,1-9-14,42.07,42.07,0,0,1,2-36.42C14.1,113.25,23.86,104.6,32.8,96.7a226.26,226.26,0,0,1,95.25-50.11c.41-.1,4.19-1.23,4.32-1l-4-6.31a8.95,8.95,0,0,1,15-9.8L151.88,42l4.23,6.24A5.84,5.84,0,0,1,156.46,48.83Z" transform="translate(3.35)"/>
          <path class="cls-3" d="M25.63,156c-1,1.67-18.15,10.08-21.6-2.61,2.34,12.14,10.8,20.91,12,22.13" transform="translate(3.35)"/>
        </g>
        <g class="cls-4">
          <path class="cls-3" d="M338.27,300.14a13.72,13.72,0,0,1-13.72-13.72V255.7a8.16,8.16,0,0,0-16.32,0v14.71a12.91,12.91,0,0,1-25.82,0V233.17a9,9,0,0,0-18.05,0v57.27a23,23,0,0,1-45.92,0v-42.9a43,43,0,0,1-86,0v49a22.75,22.75,0,0,1-45.5,0V239.74a4.62,4.62,0,0,0-9.24,0v20.11a12.78,12.78,0,0,1-25.55,0V234.46a6.39,6.39,0,0,0-12.77,0v44.79a20.89,20.89,0,0,1-20.89,20.89H18A20.8,20.8,0,0,1,3.25,294a178.36,178.36,0,0,0,343.46,3.22A13.64,13.64,0,0,1,338.27,300.14Z" transform="translate(3.35)"/>
          <path class="cls-2" d="M337.78,298.5a13.71,13.71,0,0,1-13.71-13.72V254.06a8.16,8.16,0,1,0-16.32,0v14.7a12.91,12.91,0,1,1-25.82,0V231.53a9,9,0,0,0-18.05,0V288.8a23,23,0,0,1-45.93,0V245.9a43,43,0,1,1-86,0v49a22.75,22.75,0,1,1-45.5,0V238.1a4.6,4.6,0,0,0-1.36-3.27,4.55,4.55,0,0,0-3.26-1.35,4.62,4.62,0,0,0-4.62,4.62v20.1a12.78,12.78,0,1,1-25.55,0V232.82a6.39,6.39,0,0,0-12.77,0v44.79A20.89,20.89,0,0,1,18,298.5h-.44a20.83,20.83,0,0,1-14.78-6.12,178.36,178.36,0,0,0,343.46,3.22A13.67,13.67,0,0,1,337.78,298.5Z" transform="translate(3.35)"/>
          <path class="cls-3" d="M16.94,298.48a20.77,20.77,0,0,1-14.39-6.1A178.53,178.53,0,0,0,205,421.63a178.43,178.43,0,0,1-188-123.15Z" transform="translate(3.35)"/>
          <path class="cls-5" d="M353.38,261.14a186.76,186.76,0,0,1-1.75,25.52,181,181,0,0,1-5.28,25.13,13.45,13.45,0,0,1-8.44,3,13.85,13.85,0,0,1-13.72-14V269.45a8.38,8.38,0,0,0-2.39-5.88,8.09,8.09,0,0,0-5.77-2.43,8.23,8.23,0,0,0-8.16,8.31v15A13,13,0,0,1,295,297.6a12.75,12.75,0,0,1-9.13-3.85,13.25,13.25,0,0,1-3.78-9.31V246.5a9.25,9.25,0,0,0-2.64-6.5,8.91,8.91,0,0,0-6.38-2.7,9.11,9.11,0,0,0-9,9.2v58.37a23,23,0,1,1-45.93,0V261.14c0-24.21-19.25-43.83-43-43.83s-43,19.62-43,43.83v50a22.75,22.75,0,1,1-45.5,0V253.19a4.73,4.73,0,0,0-1.36-3.33A4.58,4.58,0,0,0,82,248.48a4.67,4.67,0,0,0-4.61,4.71v20.49a12.78,12.78,0,1,1-25.55,0V247.81a6.53,6.53,0,0,0-1.87-4.59,6.3,6.3,0,0,0-4.51-1.91,6.45,6.45,0,0,0-6.39,6.5v45.65a21.1,21.1,0,0,1-20.9,21.29h-.44A20.64,20.64,0,0,1,2.9,308.52,185.59,185.59,0,0,1,17.54,176c30-57.43,89.27-96.54,157.54-96.54C273.55,79.42,353.38,160.78,353.38,261.14Z" transform="translate(3.35)"/>
          <path class="cls-6" d="M353.25,245.9a179.9,179.9,0,0,1-1.75,25,176.47,176.47,0,0,1-5.27,24.66,13.72,13.72,0,0,1-22.16-10.82V254.05a8.16,8.16,0,0,0-16.32,0v14.71a12.91,12.91,0,1,1-25.82,0V231.53a9,9,0,0,0-18.05,0V288.8a23,23,0,0,1-45.93,0V245.9a43,43,0,1,0-86,0v49a22.75,22.75,0,1,1-45.5,0V238.1a4.6,4.6,0,0,0-1.36-3.27,4.55,4.55,0,0,0-3.26-1.35,4.62,4.62,0,0,0-4.62,4.62v20.1a12.78,12.78,0,1,1-25.55,0V232.82a6.39,6.39,0,0,0-12.77,0v44.79A20.89,20.89,0,0,1,18,298.5h-.44a20.83,20.83,0,0,1-14.78-6.12A178.32,178.32,0,1,1,353.25,245.9Z" transform="translate(3.35)"/>
        </g>
        <ellipse class="cls-7" cx="178.33" cy="462.52" rx="130.55" ry="13.48"/>
        <path class="cls-2" d="M155.13,422.56V449H144.52a6.76,6.76,0,0,0,0,13.52h26.17v-40Z" transform="translate(3.35)"/>
        <path class="cls-2" d="M194.84,422.56V449h10.61a6.76,6.76,0,0,1,0,13.52H179.28v-40Z" transform="translate(3.35)"/>
        <path class="cls-6" d="M198.87,4.51h0a15,15,0,0,0-21.17,0l-1.35,1.34L175,4.51a15,15,0,0,0-21.17,0h0a15,15,0,0,0,0,21.17l22.48,22.55,0,0,0,0,22.48-22.55A15,15,0,0,0,198.87,4.51Z" transform="translate(3.35)"/>
        <path class="cls-3" d="M170.69,423s-15.56,2.79-15.56,10.39v-12Z" transform="translate(3.35)"/>
        <path class="cls-3" d="M179.28,421.59l15.56.66v.31s-15.56,3.46-15.56,11.05" transform="translate(3.35)"/>
        <path class="cls-5" d="M158.16,24.14A15.86,15.86,0,0,1,159.4,4.51h0A15.56,15.56,0,0,1,166.88.32a14.37,14.37,0,0,0-13.37,4.19h0a15.81,15.81,0,0,0,0,21.17l22.88,22.55h0L161.61,29Z" transform="translate(3.35)"/>
        <path class="cls-2" d="M175,157a19.5,19.5,0,0,1-19.34-17,2.23,2.23,0,0,1,2.22-2.5h0a2.24,2.24,0,0,1,2.21,1.95,15,15,0,0,0,29.83,0,2.23,2.23,0,0,1,2.21-1.95h0a2.23,2.23,0,0,1,2.21,2.5A19.5,19.5,0,0,1,175,157Z" transform="translate(3.35)"/>
        <circle class="cls-2" cx="146.37" cy="126.7" r="7.09"/>
        <circle class="cls-2" cx="210.29" cy="126.7" r="7.09"/>
        <circle class="cls-8" cx="113.67" cy="163.12" r="16.66"/>
        <circle class="cls-8" cx="243.26" cy="163.12" r="16.66"/>
      </g>
    </g>
  </g>
</svg>
