<svg xmlns="http://www.w3.org/2000/svg" xmlns:xlink="http://www.w3.org/1999/xlink" width="782.33" height="648.75" viewBox="0 0 782.33 648.75">
  <defs>
    <style>
      .cls-1, .cls-6 {
        fill: none;
      }

      .cls-2 {
        fill: #e9b85a;
        stroke: #e9b85a;
        stroke-width: 2px;
      }

      .cls-2, .cls-3 {
        stroke-miterlimit: 10;
      }

      .cls-3 {
        fill: #f2ebd1;
        stroke: #f2ebd1;
        stroke-width: 3px;
      }

      .cls-4 {
        clip-path: url(#clip-path);
      }

      .cls-5 {
        fill: #e2ca1a;
      }

      .cls-6 {
        stroke: #fff;
        stroke-linecap: round;
        stroke-linejoin: round;
        stroke-width: 18px;
      }
    </style>
    <clipPath id="clip-path" transform="translate(38.61 28.25)">
      <path class="cls-1" d="M725.2,332.23a25.38,25.38,0,0,1,2.83-3.84q.47-7.89.47-15.89c0-170.66-162.74-309-363.5-309S.62,142.93.5,313.5a139.12,139.12,0,0,1,2,19c2.75,28.92,11.43,81,39.09,102.79,25.5,20.07,71.88,20.85,109.73,41,30,15.95,53.88,59.87,94.63,68.91,33.44,7.42,74.24-20.46,115.68-20.46,41.7,0,82.82,27.86,116.67,20.41,41-9,65.46-53,95.93-68.84,38.31-19.95,86.35-18.64,111.13-40,31-26.81,36.77-74.53,39.06-96.69C724.72,336.62,725,334.15,725.2,332.23ZM532,273c0,59.65-83.5,105.5-164,106-4.54,0-9-.13-13.49-.37-35.36-.7-63-8.17-82.38-18C230.86,341,204,309.07,204,273c0-59.65,73.43-108,164-108S532,213.35,532,273Z"/>
    </clipPath>
  </defs>
  <g id="Layer_2" data-name="Layer 2">
    <g id="Layer_1-2" data-name="Layer 1">
      <g>
        <path class="cls-2" d="M1.5,310.5c0,170.66,162.74,309,363.5,309s363.5-138.34,363.5-309S565.76,1.5,365,1.5,1.5,139.84,1.5,310.5ZM239,336s33.5-89.5,124.5-91.5S493,340,493,340s-28,31-117,38S239,336,239,336Z" transform="translate(38.61 28.25)"/>
        <path class="cls-3" d="M726.2,330.23a25.38,25.38,0,0,1,2.83-3.84q.47-7.89.47-15.89c0-170.66-162.74-309-363.5-309S1.62,140.93,1.5,311.5a139.12,139.12,0,0,1,2,19c2.75,28.92,11.43,81,39.09,102.79,25.5,20.07,71.88,20.85,109.73,41,30,15.95,53.88,59.87,94.63,68.91,33.44,7.42,74.24-20.46,115.68-20.46,41.7,0,82.82,27.86,116.67,20.41,41-9,65.46-53,95.93-68.84,38.31-19.95,86.35-18.64,111.13-40,31-26.81,36.77-74.53,39.06-96.69C725.72,334.62,726,332.15,726.2,330.23ZM533,271c0,59.65-83.5,105.5-164,106-4.54,0-9-.13-13.49-.37-35.36-.7-63-8.17-82.38-18C231.86,339,205,307.07,205,271c0-59.65,73.43-108,164-108S533,211.35,533,271Z" transform="translate(38.61 28.25)"/>
        <g class="cls-4">
          <g>
            <path class="cls-5" d="M374.4,198.64Z" transform="translate(38.61 28.25)"/>
            <path class="cls-5" d="M572.39,407.88v1.87C574.21,410.67,574.21,407,572.39,407.88Z" transform="translate(38.61 28.25)"/>
            <path class="cls-5" d="M178.19,41.93V43.4a2.14,2.14,0,0,0,1.53-.62,2.57,2.57,0,0,0,.68-1.92l-1.41.07v0l1.41,0c0-1.5-.82-3.07-2.19-3.07v1.49c-.21,0-.42.14-.6.7,1.09.25-.11.8,0,1.87A1.17,1.17,0,0,0,178.19,41.93Z" transform="translate(38.61 28.25)"/>
            <path class="cls-5" d="M530.44,205.43a.8.8,0,0,0-.77-.5V203.4a2.19,2.19,0,0,0-1.67.81l-.14-.21-2.56,1.05a.72.72,0,0,1,.4-.59,3.24,3.24,0,0,1-.46.07,2.8,2.8,0,0,0-2.18,1.07,2.4,2.4,0,0,0-.24,2.08l1.5,1c.22,0,.43,0,.56,0v.19a2.6,2.6,0,0,0,2.22,2.95l1.57-1a7.58,7.58,0,0,1,2.06-1.67,1.56,1.56,0,0,0,.87-1.8l-1.16-.87Z" transform="translate(38.61 28.25)"/>
            <path class="cls-5" d="M568.55,186.08c2.64,3.47,2.26-1.52,0,0Z" transform="translate(38.61 28.25)"/>
            <path class="cls-5" d="M557.83,108.23l1.61-1.58a4.23,4.23,0,0,1,0-.7,3.21,3.21,0,0,0-.56-2.55,2.3,2.3,0,0,0-2.56-.45l-1,1.17C555,107.54,557.14,108.13,557.83,108.23Z" transform="translate(38.61 28.25)"/>
            <path class="cls-5" d="M559.26,419.52a3.1,3.1,0,0,0,2.38,1.13,3.93,3.93,0,0,0,1.13-.17l1-1a2.49,2.49,0,0,0-.45-2.25,3.87,3.87,0,0,0-3-1.45,2.43,2.43,0,0,0-2.41,1.61l1,1.83A3,3,0,0,1,559.26,419.52Z" transform="translate(38.61 28.25)"/>
            <path class="cls-5" d="M468.73-19.9a2.46,2.46,0,0,0,1.09.6l1.74-1.21a2.43,2.43,0,0,0,.6-1.13L471-23.36a2.64,2.64,0,0,0-1-.57l-1.8,1.21a2.61,2.61,0,0,0-.59,1Z" transform="translate(38.61 28.25)"/>
            <path class="cls-5" d="M443.75,5.67a2.63,2.63,0,0,0,2.66-2.23c.08-.91-.46-2.09-2.26-2.41l-1.66,1.4a1.17,1.17,0,0,1,.23-.6,2.16,2.16,0,0,0-1.43,1.53l.24,1.18A2.76,2.76,0,0,0,443.75,5.67Z" transform="translate(38.61 28.25)"/>
            <path class="cls-5" d="M437.37,19.72a.44.44,0,0,1-.14-.11l2.44-.58c.29-1.12.19-2.58-2-3.18-.13,0-.24-.06-.22,0l-2.44.59C434.75,17.56,434.88,19,437.37,19.72Z" transform="translate(38.61 28.25)"/>
            <path class="cls-5" d="M500.21,269l.89.4h.29c2.08,0,2.87-1.43,3.5-2.57l-1.18-2.34a3.06,3.06,0,0,0-1.55-1l-1.63.76a3,3,0,0,1-.4.57C499.64,265.45,498.29,267.15,500.21,269Z" transform="translate(38.61 28.25)"/>
            <path class="cls-5" d="M557.41,15.15l1.42-1.31a2.63,2.63,0,0,0-.62-2,3.05,3.05,0,0,0-2.92-.71l-1.19,1.4v1.24l1.42,1.42Z" transform="translate(38.61 28.25)"/>
            <path class="cls-5" d="M469.24,48.22l.54,0L471,46.81a3.12,3.12,0,0,0-2.22-3.25l-1.86,1.18a2.73,2.73,0,0,0-.6,1l1.31,1.83A2.68,2.68,0,0,0,469.24,48.22Z" transform="translate(38.61 28.25)"/>
            <path class="cls-5" d="M388.79,47.71a2.7,2.7,0,0,0,2.76-2c0-.26.12-1.64-1.78-2.16l-.6.37a1.25,1.25,0,0,1-.22-.16l-2.15.67a2.44,2.44,0,0,0,.15,2.35A2.18,2.18,0,0,0,388.79,47.71Z" transform="translate(38.61 28.25)"/>
            <path class="cls-5" d="M368.75,449.71a2.25,2.25,0,0,0,0,2.25,3,3,0,0,0,2.69,1.22,3.71,3.71,0,0,0,2.63-.94,1.83,1.83,0,0,0,.48-1.42l-1.8-1.24a3.09,3.09,0,0,1-.26-.26,2.23,2.23,0,0,0-1.69-.89,2.57,2.57,0,0,0-1.82.95Z" transform="translate(38.61 28.25)"/>
            <path class="cls-5" d="M617.27,266.23a2.36,2.36,0,0,0,2.25,2.45l1.72-1.59a3.18,3.18,0,0,0,1-.93l-.87-2.13C619.32,263.53,617.41,264.61,617.27,266.23Z" transform="translate(38.61 28.25)"/>
            <path class="cls-5" d="M280.43,89.87l-1.24-1.41c-2.31-.25-3.83.65-4.08,2.45l1.2,1.67a2.55,2.55,0,0,0,2.18,1.29,3.64,3.64,0,0,0,.89-.12l1.05-1.37Z" transform="translate(38.61 28.25)"/>
            <path class="cls-5" d="M390,18.64a8.49,8.49,0,0,0-.75,1.51l.91,1.79.76.14a3.21,3.21,0,0,0,2.92-3,2.11,2.11,0,0,0-1.79-2.36l-1.56,1A5,5,0,0,1,390,18.64Z" transform="translate(38.61 28.25)"/>
            <path class="cls-5" d="M280.2,147.37a4.54,4.54,0,0,1,1.19.81l2.49-1.19-.18-.76a3.36,3.36,0,0,1-.1-.47,2.93,2.93,0,0,1,.1-.48l.18-.77-.39-1.32a4.85,4.85,0,0,0-3.53-1.08c-.41,0-.86,0-1.3,0l-1.33,1.54C277.53,145.89,279.13,146.77,280.2,147.37Z" transform="translate(38.61 28.25)"/>
            <path class="cls-5" d="M391.88,225.53l-1.36-2.08c-.69.05-2.76.22-3.66,2l.25,1.61a2.5,2.5,0,0,0,1.87.9C390.59,228,391.46,226.33,391.88,225.53Z" transform="translate(38.61 28.25)"/>
            <path class="cls-5" d="M388.26,247l-1.09-1-.54-.06a3.86,3.86,0,0,0-3.56,2.79,2.07,2.07,0,0,0,.73,2.09,2.94,2.94,0,0,0-.69.92l1.07,2a.63.63,0,0,1-.38-.25,2.89,2.89,0,0,1,.14.44,2.62,2.62,0,0,0,2.12,2.32l1.51-.91a4.44,4.44,0,0,0-.51-3.92,2.58,2.58,0,0,0-1-.91l.47-.19A2.56,2.56,0,0,0,388.26,247Z" transform="translate(38.61 28.25)"/>
            <path class="cls-5" d="M343.94-1.91A1.75,1.75,0,0,1,344.33-3l-1.18-2.19H341.9l-1.13.55a2.82,2.82,0,0,0-.63,2.51,2.63,2.63,0,0,0,2,1.61Z" transform="translate(38.61 28.25)"/>
            <path class="cls-5" d="M257.91,65.89c-.3.39-1.22,1.6-.64,2.79a1.89,1.89,0,0,0,1.77,1,2.57,2.57,0,0,0,2.62-2c.06-.54,0-1.83-2.29-2.37Z" transform="translate(38.61 28.25)"/>
            <path class="cls-5" d="M336.67,295.93l-1.17,1.39v1.26l1.42,1.42h1.86l1.42-1.31a2.62,2.62,0,0,0-.63-2.06A3,3,0,0,0,336.67,295.93Z" transform="translate(38.61 28.25)"/>
            <path class="cls-5" d="M583.86,272.14l-1.12,1.38v1.26l1.22,1.39a2.52,2.52,0,0,0,1.11.62l1.74-1.74C586.75,272.78,585.69,271.71,583.86,272.14Z" transform="translate(38.61 28.25)"/>
            <path class="cls-5" d="M343.94,41.05l-.4,0a3.41,3.41,0,0,0-1.75.5,1.09,1.09,0,0,1-.41.14l-1.5,1.24a2.91,2.91,0,0,0,.69,2.29,3.37,3.37,0,0,0,2.51,1.11,2.63,2.63,0,0,0,2.75-2.52l-1-1.45a1.06,1.06,0,0,1,.4.32Z" transform="translate(38.61 28.25)"/>
            <path class="cls-5" d="M246.31,39.56a2.34,2.34,0,0,0-2.79-1.37l-.87.67a2.73,2.73,0,0,0-.09,2.76A2.79,2.79,0,0,0,244.92,43a2.22,2.22,0,0,0,2.23-1.93l-1.31-1.66a1.32,1.32,0,0,1,.47.17Z" transform="translate(38.61 28.25)"/>
            <path class="cls-5" d="M484.79,30.12c0,.17,0,.19-.14.48a3.41,3.41,0,0,0-.49,2l1,1.25a4.41,4.41,0,0,0,1.27.22c2,0,2.41-1.87,2.56-2.58,0-.18.09-.45,0-.45h0l-1-2.47H486.2Z" transform="translate(38.61 28.25)"/>
            <path class="cls-5" d="M457.91,93l.91,1.41a5.45,5.45,0,0,0,1.94.46c1.79,0,2.52-1.49,3-2.38l-1.17-2c-.38,0-.76,0-1.12,0C458.51,90.37,458,92,457.91,93Z" transform="translate(38.61 28.25)"/>
            <path class="cls-5" d="M303.42,136.2l1.75-1.22a2.64,2.64,0,0,0,.57-1.09l-1.19-1.72a2.63,2.63,0,0,0-1.11-.61l-1.74,1.22a2.59,2.59,0,0,0-.58,1.05l1.19,1.78A2.68,2.68,0,0,0,303.42,136.2Z" transform="translate(38.61 28.25)"/>
            <path class="cls-5" d="M627.39,279.42c.76,0,3.25-.13,3.67-1.78a1.89,1.89,0,0,0-1.14-2.17l-.73.43-1,.62h0a1.88,1.88,0,0,0-.12-.18,1.3,1.3,0,0,1,1.18-.44l-1.4-1.87a3.64,3.64,0,0,0-3.33,2.24l-.26,1.65C624.65,278.89,625.78,279.42,627.39,279.42Z" transform="translate(38.61 28.25)"/>
            <polygon class="cls-5" points="492.31 64.02 493.73 62.6 493.73 60.73 492.31 59.31 490.45 59.31 489.03 60.73 489.03 62.6 490.45 64.02 492.31 64.02"/>
            <path class="cls-5" d="M133.7,168.25l1.72-1.22a2.83,2.83,0,0,0,.56-1.1l-1.18-1.72a2.59,2.59,0,0,0-1.14-.6l-1.71,1.2a2.5,2.5,0,0,0-.6,1.12l1.22,1.73A2.49,2.49,0,0,0,133.7,168.25Z" transform="translate(38.61 28.25)"/>
            <polygon class="cls-5" points="171.97 252.12 173.39 250.7 173.39 248.22 171.97 246.8 170.73 246.8 169.31 248.22 169.31 250.7 170.73 252.12 171.97 252.12"/>
            <path class="cls-5" d="M172,162.23l1.37,1.06h1.86l1.4-1.63a3.1,3.1,0,0,1,0-.44c0-.59-.07-2.4-1.8-2.63l-1.62,1.31a2.09,2.09,0,0,1,.17-.47A2.21,2.21,0,0,0,172,162.23Z" transform="translate(38.61 28.25)"/>
            <path class="cls-5" d="M88.74,270.34a2.86,2.86,0,0,0-.8,3.05,2.35,2.35,0,0,0,2.28,1.35,4.69,4.69,0,0,0,1.13-.15l1.09-1.32A3.1,3.1,0,0,0,90.22,270Z" transform="translate(38.61 28.25)"/>
            <path class="cls-5" d="M43.66,303.36a3,3,0,0,0,2.88-2.58,2,2,0,0,0-1.83-2.19l-1.65,1.29c0-.24.2-.45.16-.45a2.2,2.2,0,0,0-1.38,2.76l.82,1A2.42,2.42,0,0,0,43.66,303.36Z" transform="translate(38.61 28.25)"/>
            <path class="cls-5" d="M660.47,111l-1.42,1.3a3.2,3.2,0,0,0,.73,2.54,2.93,2.93,0,0,0,2.26.89h.4l1.31-1.42v-1.88L662.33,111Z" transform="translate(38.61 28.25)"/>
            <path class="cls-5" d="M641.26,62.72c0-2.26-1.14-3.33-3-2.9l-1.12,1.38v1.26l1.22,1.39a2.62,2.62,0,0,0,1.09.61Z" transform="translate(38.61 28.25)"/>
            <path class="cls-5" d="M553.07.18a2.41,2.41,0,0,0,2.34-2.3l-.57-2.45c-2.3-.58-3,1.29-3.17,2.19l.59,2.45A3.35,3.35,0,0,0,553.07.18Z" transform="translate(38.61 28.25)"/>
            <path class="cls-5" d="M634.8,358.47a2.94,2.94,0,0,0,2.25.87h.45l1.29-1.42V356l-1.42-1.42h-1.88l-1.42,1.31A3.18,3.18,0,0,0,634.8,358.47Z" transform="translate(38.61 28.25)"/>
            <path class="cls-5" d="M635,75.84l-1.38-1.07h-1.86l-1.4,1.63a2.12,2.12,0,0,1,0,.44c0,.6.06,2.41,1.79,2.64l1.62-1.34a1.71,1.71,0,0,1-.17.49A2.23,2.23,0,0,0,635,75.84Z" transform="translate(38.61 28.25)"/>
            <path class="cls-5" d="M734.27,123.84c1.85-.14,3.08-.83,3.68-2.06l-.24-1.57a3,3,0,0,0-4.33-.09,2.92,2.92,0,0,0-.62,2.51Z" transform="translate(38.61 28.25)"/>
            <path class="cls-5" d="M66.64,317.34l-1.09,1.55c0,.14,0,.28,0,.42,0,.62.06,2.49,1.83,2.7l.8-.69c-.11,0-.27,0-.34,0l1.76-1.49C69.38,317.2,67.87,317,66.64,317.34Z" transform="translate(38.61 28.25)"/>
            <path class="cls-5" d="M693.68,113.76a2.08,2.08,0,0,0-.54-2c0-.09,0-.16,0-.25l-1.48-1.13a4.06,4.06,0,0,0-1.6.31,1.67,1.67,0,0,0-2.22,1.5l.25.3a4.81,4.81,0,0,0-.76,1.2l.89,2a4.82,4.82,0,0,0,1.46.2C691.29,115.87,693.26,115.21,693.68,113.76Z" transform="translate(38.61 28.25)"/>
            <path class="cls-5" d="M681.55,212.57a2.89,2.89,0,0,0,3.18-2.55,3.26,3.26,0,0,0-2.78-3.41l-1.38.55a5.37,5.37,0,0,0-.89,4.15l1.25,1.22C681.15,212.55,681.35,212.57,681.55,212.57Z" transform="translate(38.61 28.25)"/>
            <path class="cls-5" d="M686.34,230.71a3.1,3.1,0,0,0,.7-.1l1-.81a2.64,2.64,0,0,0-.28-2.55c-1.08-1.66-3.9-2-4.28.51l1.3,1.64a.84.84,0,0,1-.47-.17A2.22,2.22,0,0,0,686.34,230.71Z" transform="translate(38.61 28.25)"/>
            <path class="cls-5" d="M201,191.85a1.78,1.78,0,0,0-1.75,1.37l1.34,1.8a1.09,1.09,0,0,1-.42-.52,2.41,2.41,0,0,0,.23,1.92,2.68,2.68,0,0,0,1.83,1l.95-.15a2.2,2.2,0,0,0,1.08-2.59C203.94,193.43,202.41,191.85,201,191.85Z" transform="translate(38.61 28.25)"/>
            <path class="cls-5" d="M225.21,185.72c-.53.57-1.5,2.64-1,4.09a2.11,2.11,0,0,0,1.84,1.42l1.41-2a2.51,2.51,0,0,1,.27-.5,2.28,2.28,0,0,0,.43-2.11,2.17,2.17,0,0,0-1.56-1.28Z" transform="translate(38.61 28.25)"/>
            <path class="cls-5" d="M-25.53,354.32c0,.16,0,.18-.15.47a3.32,3.32,0,0,0-.48,2l1.57,1.27a.8.8,0,0,1-.53-.16,4.18,4.18,0,0,1,.26.34,2.07,2.07,0,0,0,1.67,1.1c.51,0,1.39-.22,1.7-1.75l-.45-.57,1.1-.88a4.16,4.16,0,0,0-.87-2.74l-1.17-.63h-1.24Z" transform="translate(38.61 28.25)"/>
            <path class="cls-5" d="M228.57,122.44l-.11,2.28a7,7,0,0,0,4,1c3.53,0,3.91-2.07,3.95-2.71l-1.24-1.48-.53-.07C232.23,121.18,230.32,121.27,228.57,122.44Z" transform="translate(38.61 28.25)"/>
            <path class="cls-5" d="M-4.3,215.5l.66,1.2a2.4,2.4,0,0,0,1.31.41,2.39,2.39,0,0,0,2.24-2.6,2.75,2.75,0,0,0-.36-1.36,1.92,1.92,0,0,0-1.68-1l-.42,0-.67.77a1.34,1.34,0,0,1,.61-.15h0l-1.71,1.39Z" transform="translate(38.61 28.25)"/>
            <path class="cls-5" d="M441.57,208.1a5.4,5.4,0,0,1,.86.22,4.56,4.56,0,0,0,1.44.29c.7,0,1.94-.29,2.39-2.24l-.36-1.28a3.83,3.83,0,0,0-3.67-.91,2.66,2.66,0,0,0,1-2.23,2.63,2.63,0,0,0-.34-1.35,2,2,0,0,0-1.67-.95l-.45,0-.64.77c.18-.09.45-.06.6-.15l-1.71,1.39v1.24l.67,1.2a2.51,2.51,0,0,0,1.81.35,2.58,2.58,0,0,0-1.22,2.16Z" transform="translate(38.61 28.25)"/>
            <path class="cls-5" d="M440.64,120.11a3.18,3.18,0,0,0,.84-.11l1.06-1.43c-.06-1.41-1.64-3.75-3.35-3.75a2,2,0,0,0-1.9,1.43l1.48,1.9c-.21,0-.44-.15-.44,0A2.41,2.41,0,0,0,440.64,120.11Z" transform="translate(38.61 28.25)"/>
            <path class="cls-5" d="M216.06,67.42a3.22,3.22,0,0,0,2.81-1.84l-1.09-1.79v-.11l-.15-.15a.94.94,0,0,1,.57.24,2.22,2.22,0,0,0-1.49-1.45l-1.17,1.08a1.79,1.79,0,0,1,.55-.11l-.7.25-.46.42a.65.65,0,0,1,.24-.33l-1.46.52a3.07,3.07,0,0,0,.61,2.5A2.31,2.31,0,0,0,216.06,67.42Z" transform="translate(38.61 28.25)"/>
            <path class="cls-5" d="M313.51,188.5l-1.1,1.08a3.25,3.25,0,0,0,1.58,3.75,2.45,2.45,0,0,1,.45.37l2.59-.29a4.62,4.62,0,0,1,.59-.66,2.65,2.65,0,0,0,1.12-2.52,2.7,2.7,0,0,0-2-1.71l-.9.62A2.17,2.17,0,0,0,313.51,188.5Z" transform="translate(38.61 28.25)"/>
            <path class="cls-5" d="M320.07,197.7a4.69,4.69,0,0,0-2.44-1.56,1.81,1.81,0,0,0-.2-.33l-1.16-.55c-1.78,0-3.3,4.12-3.3,5.09l.28,1,1.36.73a2.28,2.28,0,0,0,1.2-.4l.07-.07c.13.25.24.52.35.74.79,1.74,1.78,3.91,3.81,3.93l1.4-1.17C321.84,203,321.72,199.69,320.07,197.7Z" transform="translate(38.61 28.25)"/>
            <path class="cls-5" d="M318.36,259.19a2.16,2.16,0,0,0-1.84,3.44,2.62,2.62,0,0,0,4.06-.09,2.1,2.1,0,0,0,.14-2A2.56,2.56,0,0,0,318.36,259.19Z" transform="translate(38.61 28.25)"/>
            <path class="cls-5" d="M309.29,25.9l1.29,1.79a2.7,2.7,0,0,0,1.69.61l.53-.05L314,26.64a3,3,0,0,1,0-.44c0-.59-.07-2.36-1.79-2.63L310.51,25a1.15,1.15,0,0,1,.24-.6A2.17,2.17,0,0,0,309.29,25.9Z" transform="translate(38.61 28.25)"/>
            <path class="cls-5" d="M327.67,175.88l-.2-.17a2.44,2.44,0,0,0,.14-.62,2,2,0,0,0-1.67-2.21l-1.61,1c.05-.15.27-.32.28-.34l-1.5.84a2.34,2.34,0,0,0,.22,2.26,3.3,3.3,0,0,0,2.54,1.43,1.76,1.76,0,0,0,1.8-2.14Z" transform="translate(38.61 28.25)"/>
            <path class="cls-5" d="M321.78,181.74a2.82,2.82,0,0,0,.52,2.27,1.93,1.93,0,0,0,1.42.6,3.47,3.47,0,0,0,1.23-.28l.76-.74a3.66,3.66,0,0,0-.3-3.49c-1.21-1.84-3.73-1.72-4.22,0l1.47,1.79a.94.94,0,0,1-.86-.69A5.08,5.08,0,0,1,321.78,181.74Z" transform="translate(38.61 28.25)"/>
            <path class="cls-5" d="M322.11,194.58a3.69,3.69,0,0,0,2.62-.94,1.83,1.83,0,0,0,.48-1.42L323.42,191a1.9,1.9,0,0,1-.26-.25,2.22,2.22,0,0,0-1.68-.9,2.6,2.6,0,0,0-1.84.95l-.24.34a2.25,2.25,0,0,0,0,2.23A3,3,0,0,0,322.11,194.58Z" transform="translate(38.61 28.25)"/>
            <path class="cls-5" d="M468.44,128.61v1.25l1.21,1.4a2.82,2.82,0,0,0,1.09.6l1.76-1.73c-.05-2.26-1.08-3.33-2.93-2.91Z" transform="translate(38.61 28.25)"/>
            <path class="cls-5" d="M523.88,203.36a.58.58,0,0,1-.16-.12l2.51-.81a3.2,3.2,0,0,0-.73-2.54,3,3,0,0,0-2.24-.88l-.44,0-1.25,1C521.29,201.2,521.39,202.66,523.88,203.36Z" transform="translate(38.61 28.25)"/>
            <path class="cls-5" d="M269.37,306.19a2.33,2.33,0,0,0,.12,2.23,2,2,0,0,0,1.63.81,3.41,3.41,0,0,0,3-2,2.06,2.06,0,0,0-.6-2.31C272.32,304,269.81,305,269.37,306.19Z" transform="translate(38.61 28.25)"/>
            <polygon class="cls-5" points="310.4 575.43 310.4 577.91 311.81 579.33 313.06 579.33 314.48 577.91 314.48 575.43 313.06 574.01 311.81 574.01 310.4 575.43"/>
            <path class="cls-5" d="M120.51,91.66a2.62,2.62,0,0,0,1.7.78,2.09,2.09,0,0,0,1.09-.33c.15-.08.29,0,.56-.11l1.48-1.42V89.31l-1.27-1.4a2.41,2.41,0,0,0-1.08-.6L121,88.67a3.36,3.36,0,0,0-1,1.54Z" transform="translate(38.61 28.25)"/>
            <path class="cls-5" d="M351.91,240.46a1.89,1.89,0,0,0,1.76,1,2.59,2.59,0,0,0,2.64-2c.06-.67-.14-1.84-2.33-2.35l-1.44.52C352.24,238.08,351.32,239.27,351.91,240.46Z" transform="translate(38.61 28.25)"/>
            <path class="cls-5" d="M82.08,28.41a2.2,2.2,0,0,0,1.87.93,3.62,3.62,0,0,0,2.59-1.21,2.65,2.65,0,0,0,.68-2.1L85.81,24.8h-2.5L82,25.71A2.79,2.79,0,0,0,82.08,28.41Z" transform="translate(38.61 28.25)"/>
            <path class="cls-5" d="M100.32,355.17c-.3.39-1.23,1.59-.65,2.77a1.88,1.88,0,0,0,1.76,1,2.58,2.58,0,0,0,2.63-2c.07-.65-.13-1.84-2.31-2.34Z" transform="translate(38.61 28.25)"/>
            <path class="cls-5" d="M296.18,214.36l1.42-1.31A2.59,2.59,0,0,0,297,211a3,3,0,0,0-2.89-.71l-1.19,1.39v1.26l1.42,1.42Z" transform="translate(38.61 28.25)"/>
            <path class="cls-5" d="M428.94,132.22l-1.12,1.38v1.27l1.27,1.41a2.41,2.41,0,0,0,1,.57l1.79-1.73C431.83,132.86,430.79,131.75,428.94,132.22Z" transform="translate(38.61 28.25)"/>
            <path class="cls-5" d="M119.75,287.44l-2.26,1.05c-.09,1.41-.09,2.86.82,3.84a2.77,2.77,0,0,0,2.07.83,3.34,3.34,0,0,0,.61-.05l.8-.4a2.46,2.46,0,0,0,.82-2.06c-.13-1.37-1.37-2.19-2.36-2.87Z" transform="translate(38.61 28.25)"/>
            <path class="cls-5" d="M192.27,4.59a3,3,0,0,0,.69-.1l1-.81a2.69,2.69,0,0,0-.28-2.55c-1.09-1.64-3.89-2-4.29.51l1.31,1.64a.85.85,0,0,1-.48-.17A2.25,2.25,0,0,0,192.27,4.59Z" transform="translate(38.61 28.25)"/>
            <path class="cls-5" d="M119.88,192.88l-1.76,1.19a2.59,2.59,0,0,0-.6,1.13l1.22,1.72a2.57,2.57,0,0,0,1.1.59l1.75-1.23a2.74,2.74,0,0,0,.58-1.05L121,193.45A2.65,2.65,0,0,0,119.88,192.88Z" transform="translate(38.61 28.25)"/>
            <path class="cls-5" d="M376.75,175l.37-.33.11.08,2.22-1.14a3.16,3.16,0,0,0-2.21-3.26l-.82.59h0l-1.61,2C375,174.63,376,175,376.75,175Z" transform="translate(38.61 28.25)"/>
            <path class="cls-5" d="M317.68,153.24,319,155.6c.06,0,.1,0,.35.14a3.24,3.24,0,0,0,1.71.5l1.55-1.21c.46-3-1.44-4-2.59-4.6l-2.09,1.31A2.23,2.23,0,0,1,317.68,153.24Z" transform="translate(38.61 28.25)"/>
            <path class="cls-5" d="M313.11,207.2a5,5,0,0,0-3.37,1.66,6.77,6.77,0,0,1-.56.51l.67,2.53a3.37,3.37,0,0,1,1.95,1.22,11.17,11.17,0,0,0,1.15,1l2.26-1.15,0-.87c0-1.61.08-3.44-1.09-4.53Z" transform="translate(38.61 28.25)"/>
            <path class="cls-5" d="M320.71,470.88c-.29-1.34-.84-3.83-3.83-3.83h0l-1.32,1.76c.33,1.35,1,3.85,3.7,4.19l1.55-1.73Z" transform="translate(38.61 28.25)"/>
            <path class="cls-5" d="M198.72,506.13a2.94,2.94,0,0,0-.62,2.52l1.2,1.2a7.08,7.08,0,0,0,.88,0h0a2.87,2.87,0,0,0,3.19-2.52l-.36-1.13A3,3,0,0,0,198.72,506.13Z" transform="translate(38.61 28.25)"/>
            <path class="cls-5" d="M280.57,214.51a3,3,0,0,0-2.22-1.53c-1,0-1.71.71-2.13,2.11l2,1.66-.45-.05a2.6,2.6,0,0,1,.31.37,2,2,0,0,0,1.62,1.05c.56,0,1.33-.28,1.71-1.59l-.4-1.46A3.94,3.94,0,0,1,280.57,214.51Z" transform="translate(38.61 28.25)"/>
            <path class="cls-5" d="M340.75,457.67l-1.46,1.1a2.65,2.65,0,0,1-.19.4,3.66,3.66,0,0,0-.45,2.71l1.09,1.11a3.25,3.25,0,0,0,.75.08,2.72,2.72,0,0,0,2.77-2.66A2.62,2.62,0,0,0,340.75,457.67Z" transform="translate(38.61 28.25)"/>
            <path class="cls-5" d="M486.47,124.88a2.06,2.06,0,0,0-2-2.77,3.28,3.28,0,0,0-2.77,1.7,2.31,2.31,0,0,0,.13,2.24,1.92,1.92,0,0,0,1.62.81A3.45,3.45,0,0,0,486.47,124.88Z" transform="translate(38.61 28.25)"/>
            <path class="cls-5" d="M326.23,524l-2,1.11a4,4,0,0,1-.38.59,3.15,3.15,0,0,0-.82,2.71,2.23,2.23,0,0,0,1.51,1.39l1.75-.84c.08-.12.2-.26.33-.42a3.39,3.39,0,0,0,1.09-2.91A2.36,2.36,0,0,0,326.23,524Z" transform="translate(38.61 28.25)"/>
            <path class="cls-5" d="M349.08,463.86c-1.61,0-3.56.76-4.13,2.21l1.37,1.94c1.1,0,1.75-.12,2.26-.17A5.21,5.21,0,0,1,351,468l1.64-1.81A3.44,3.44,0,0,0,349.08,463.86Z" transform="translate(38.61 28.25)"/>
            <path class="cls-5" d="M326.47,194.73l-1.6,1.23a3.37,3.37,0,0,0,.54,2.75l1.35.62a2.23,2.23,0,0,0,2.11-2.11C328.94,196.25,328.36,195,326.47,194.73Z" transform="translate(38.61 28.25)"/>
            <path class="cls-5" d="M326.08,378.26l0,1.48a1.18,1.18,0,0,0-1,.66c.74.09.69,1,.65,1.88a2.75,2.75,0,0,0,.51,0v1.48a2.45,2.45,0,0,0,2.67-2.43,3.26,3.26,0,0,0-1-2.24A2.58,2.58,0,0,0,326.08,378.26Z" transform="translate(38.61 28.25)"/>
            <path class="cls-5" d="M338.14,468l-1.32-2.15a4,4,0,0,0-2.92,1.3,4.4,4.4,0,0,0-.91,3.35l1.64,1.29c2-.3,2.66-1.9,3.11-2.95A5.42,5.42,0,0,1,338.14,468Z" transform="translate(38.61 28.25)"/>
            <path class="cls-5" d="M205.53,405.69l-2.42.61c-.29,1.1-.16,2.56,2.32,3.25a.37.37,0,0,1-.12-.1l2.43-.61C208,407.74,207.89,406.28,205.53,405.69Z" transform="translate(38.61 28.25)"/>
            <path class="cls-5" d="M221.08,512a1.25,1.25,0,0,1,.12.08l2.21-1.14a3.15,3.15,0,0,0-2.2-3.25l-.83.57h0l-1.64,2c.2,1.69,1.16,2.07,1.93,2.08Z" transform="translate(38.61 28.25)"/>
            <path class="cls-5" d="M224.4,441.44l1.45,1c1.84-.15,3.07-.83,3.66-2.05l-1.58-2-.55,0c-.27,0-.53-.05-.78-.05a2.18,2.18,0,0,0-2.2,3.17Z" transform="translate(38.61 28.25)"/>
            <path class="cls-5" d="M221.75,530.16l-1.17,1.4v1.24l1.41,1.42h1.87l1.41-1.33a2.61,2.61,0,0,0-.65-2A3.05,3.05,0,0,0,221.75,530.16Z" transform="translate(38.61 28.25)"/>
            <path class="cls-5" d="M350.81,40.62a3.07,3.07,0,0,0,2.6,3.22l1.5-.54a5.52,5.52,0,0,0,.91-4.13l-1.46-1.24C352.1,38,351,39.33,350.81,40.62Z" transform="translate(38.61 28.25)"/>
            <path class="cls-5" d="M199.13,448.12l-.41,1c.09,3.59,2.51,4,3.55,4a6.13,6.13,0,0,0,1.26-.15l1.13-1.38v-2.49l-.42-1A3.84,3.84,0,0,0,199.13,448.12Z" transform="translate(38.61 28.25)"/>
            <path class="cls-5" d="M212.76,90.39a4.44,4.44,0,0,0-2.52-3.23,4.77,4.77,0,0,1-.94-.67l-2.47,1.11c.29,2.65,2.37,3.58,3.9,4.25l.62-1.27-.57,1.29Z" transform="translate(38.61 28.25)"/>
            <path class="cls-5" d="M477.75,270.87l-1.2,1.4v1.25l1.42,1.42h1.86l1.42-1.31a2.61,2.61,0,0,0-.62-2.05A3,3,0,0,0,477.75,270.87Z" transform="translate(38.61 28.25)"/>
            <path class="cls-5" d="M240.93,356.5l-1.61,1.22a3.35,3.35,0,0,0,.51,2.76l1.36.62A2.25,2.25,0,0,0,243.3,359,2.39,2.39,0,0,0,240.93,356.5Z" transform="translate(38.61 28.25)"/>
            <path class="cls-5" d="M226.89,509.82a2.33,2.33,0,0,0,.14,2.25,1.94,1.94,0,0,0,1.63.81,3.46,3.46,0,0,0,3-2,2.07,2.07,0,0,0-.6-2.29C229.86,507.6,227.46,508.6,226.89,509.82Z" transform="translate(38.61 28.25)"/>
            <path class="cls-5" d="M479.83,143.43l-1.46,1.36a2.62,2.62,0,0,0-.56,2.18l1.4,1.18h1.86l1.42-1.42v-1.89l-1.42-1.41Z" transform="translate(38.61 28.25)"/>
            <path class="cls-5" d="M478.34,134.27a2.37,2.37,0,0,0-.48-2.15l-2.44.32c-.11.26-.87.46-1.49.61-1.26.33-3.63.94-3.63,3.67l2.37,1a9,9,0,0,1,1.86-.81C476.19,136.34,477.92,135.72,478.34,134.27Z" transform="translate(38.61 28.25)"/>
            <path class="cls-5" d="M296.43,323.38l.08,1.49c-.07,0-.12-.07-.21-.07v2.51c.2,0,.28-.07.45-.08v1.54a2.51,2.51,0,0,0,2.68-2.49,2.89,2.89,0,0,0-.84-2A3,3,0,0,0,296.43,323.38Z" transform="translate(38.61 28.25)"/>
            <path class="cls-5" d="M435.63,42.31c-1.24-.16-2.23-.07-2.81.58a2,2,0,0,0-.51,1.57l.39.86a4.23,4.23,0,0,0,2.89,1.44c1.14,0,2.44-.76,2.68-2.89l-1.93-1.5C436.12,42.37,435.88,42.33,435.63,42.31Z" transform="translate(38.61 28.25)"/>
            <path class="cls-5" d="M437,498.44c0-.6-.08-2.42-1.83-2.65l-.59.34a2.87,2.87,0,0,0-2.37-1.66l-.82.16-.93,1.44a.67.67,0,0,1,.11-.5l-.36.37a2.47,2.47,0,0,0-1,2.34,2.16,2.16,0,0,0,1.63,1.52l1.18-.47a6.27,6.27,0,0,1,.77.56h0c-1.86.47-2.62,1.55-2.25,3.23l.21.48a2.62,2.62,0,0,0,2.22,1.22,3.78,3.78,0,0,0,3.37-2.68,2.56,2.56,0,0,0-.18-1.95,1.21,1.21,0,0,1-.64.27L436,500a1.4,1.4,0,0,0-.1-.16l1.09-1A3,3,0,0,1,437,498.44Z" transform="translate(38.61 28.25)"/>
            <path class="cls-5" d="M441.86,329.07l.2,1.72a2.59,2.59,0,0,0,1.89.85c1.64,0,3-1.65,3.06-3.68l-1.64-1.46C443.35,326.5,442.53,327.93,441.86,329.07Z" transform="translate(38.61 28.25)"/>
            <path class="cls-5" d="M341.84-3.15a1.87,1.87,0,0,0,.42-1.52l-1.08-1.16a1.56,1.56,0,0,1-.43-.19,3.75,3.75,0,0,0-2.69-.43l-.93.67A2.27,2.27,0,0,0,337-3.49a2.83,2.83,0,0,0,2.52,1.23A3.08,3.08,0,0,0,341.84-3.15Z" transform="translate(38.61 28.25)"/>
            <path class="cls-5" d="M334.17,77.22l-1.54,1a4.61,4.61,0,0,1-.88,1.49,10.79,10.79,0,0,0-.9,1.37l1.9,1.93a.9.9,0,0,1-.81-.62,4.63,4.63,0,0,1,0,.53,2.92,2.92,0,0,0,.59,2.28,1.92,1.92,0,0,0,1.43.58,3,3,0,0,0,1.12-.22l.86-1.78A4.52,4.52,0,0,1,336.3,82c.38-1.14.8-2.44.09-3.57A3,3,0,0,0,334.17,77.22Z" transform="translate(38.61 28.25)"/>
            <path class="cls-5" d="M431.44,124.75,429.81,126c-.43,3.44,1.8,4,2.5,4.09l1.58-1.23C434.32,125.46,432.12,124.86,431.44,124.75Z" transform="translate(38.61 28.25)"/>
            <path class="cls-5" d="M434.19,136.87a2.25,2.25,0,0,0,2.11-2.11c.08-1-.5-2.22-2.37-2.49l-1.61,1.22a3.32,3.32,0,0,0,.52,2.76Z" transform="translate(38.61 28.25)"/>
            <path class="cls-5" d="M477.73,397.19a2,2,0,0,0-.6-2.26c-1.15-1-3.63-.06-4.12,1.2a2.36,2.36,0,0,0,.12,2.23,2,2,0,0,0,1.63.82h0A3.41,3.41,0,0,0,477.73,397.19Z" transform="translate(38.61 28.25)"/>
            <path class="cls-5" d="M478.76,463.2a2.46,2.46,0,0,0-1.47-.61c-.53,0-1.49.24-1.85,1.82l.76,1.59a3.64,3.64,0,0,1,.57.39,3,3,0,0,0,1.8.81c.71,0,1.67-.37,2.13-2.11l-1.61-1.67A2.67,2.67,0,0,1,478.76,463.2Z" transform="translate(38.61 28.25)"/>
            <path class="cls-5" d="M420.94,486.46l-1.73,1.19a2.47,2.47,0,0,0-.6,1.08l1.2,1.77a2.52,2.52,0,0,0,1,.58l1.78-1.19a2.47,2.47,0,0,0,.61-1.06l-1.19-1.77A2.57,2.57,0,0,0,420.94,486.46Z" transform="translate(38.61 28.25)"/>
            <path class="cls-5" d="M392.87,68.17a3.13,3.13,0,0,0-.68-2.52,3.74,3.74,0,0,0-3.38-.93l-1.21,1a3,3,0,0,0,.26,2.76,3,3,0,0,0,2.51,1,10.85,10.85,0,0,0,1.23-.08Z" transform="translate(38.61 28.25)"/>
            <path class="cls-5" d="M465.74,252.12,464.07,251c-.08,0-.12,0-.37-.16a3.59,3.59,0,0,0-1.92-.49h0l-1.28,1a2.39,2.39,0,0,0,.25,2,2.57,2.57,0,0,0,1.84,1.05l.43,1.21h.26a2.5,2.5,0,0,0,2-.84A3.14,3.14,0,0,0,465.74,252.12Z" transform="translate(38.61 28.25)"/>
            <path class="cls-5" d="M450.24,502.05l-1.68,1.36a2.69,2.69,0,0,0,.8,2c1.26,1.3,3.7,1.75,5.58,1.75,1.4,0,3.25-.24,4.15-1.42a2.28,2.28,0,0,0,.37-2l-1.4-1A24.66,24.66,0,0,1,450.24,502.05Z" transform="translate(38.61 28.25)"/>
            <path class="cls-5" d="M371.25,323a3.14,3.14,0,0,0,1,3.52l.93.35h2.51l1.41-1.42v-2.49l-.35-.94A3.31,3.31,0,0,0,371.25,323Z" transform="translate(38.61 28.25)"/>
            <path class="cls-5" d="M385.59,478.13a3.13,3.13,0,0,0-1.09-.24c-1.54,0-2,1.56-2.12,2.07l.76,1.65.57.31a5,5,0,0,0,2.34.85,2,2,0,0,0,1.5-.61,3.31,3.31,0,0,0,.75-2.46l-1.88-1.37A2.2,2.2,0,0,1,385.59,478.13Z" transform="translate(38.61 28.25)"/>
            <path class="cls-5" d="M391.4,251.78l-2.19,1.2v1.87l1.63,1.41a3.28,3.28,0,0,1,.43,0c.6,0,2.42-.06,2.63-1.83l-1.61-1.67A3,3,0,0,0,391.4,251.78Z" transform="translate(38.61 28.25)"/>
            <polygon class="cls-5" points="428 285.42 426.58 286.84 426.58 288.72 428 290.14 429.86 290.14 431.28 288.72 431.28 286.84 429.86 285.42 428 285.42"/>
            <path class="cls-5" d="M330.32,88.46l-1.09-1.85a2.9,2.9,0,0,0-2.29.47c-.25-1.25-.66-3.12-2.61-3.58l-1.68.92c-.07.22-.1.29-.51.29h0l-1.39,1.08a2.33,2.33,0,0,0,1.26,3,1.06,1.06,0,0,1,0,.17l2.28,1.42a3.77,3.77,0,0,1,1.54.07,7.11,7.11,0,0,0,1.62.23A2.92,2.92,0,0,0,330.32,88.46Z" transform="translate(38.61 28.25)"/>
            <path class="cls-5" d="M407.86,231l-1.16,1.4v1.24l1.42,1.42H410l1.41-1.31a2.61,2.61,0,0,0-.63-2.05A3,3,0,0,0,407.86,231Z" transform="translate(38.61 28.25)"/>
            <path class="cls-5" d="M390.32,234.41l.82,2.49h.41a3,3,0,0,0,2.29-.89,3.2,3.2,0,0,0,.69-2.54l-1.06-1.24A2.47,2.47,0,0,0,390.32,234.41Z" transform="translate(38.61 28.25)"/>
            <path class="cls-5" d="M415.19,402.09l-1.17.37a3.06,3.06,0,0,0-.8,3.31,2.69,2.69,0,0,0,2.64,1.7c.18,0,.38,0,.59,0l1.19-1.23C418.08,402.78,415.88,402.19,415.19,402.09Z" transform="translate(38.61 28.25)"/>
            <path class="cls-5" d="M303.31,37.13l-1.83.83.56,1.3v1.42A10.14,10.14,0,0,0,305,39.36l-1.07-1Z" transform="translate(38.61 28.25)"/>
            <path class="cls-5" d="M344.2,437.09c-2.18.33-5.38,2.56-6,3.67l-.09,1.41,2.16.56a2.92,2.92,0,0,1,1.69-.48c1.23-.12,3.28-.32,3.84-3.51Z" transform="translate(38.61 28.25)"/>
            <path class="cls-5" d="M29.57,517.73a2.59,2.59,0,0,0-2.63,2.4l.41,1.19a3.28,3.28,0,0,0,2.29,1,2.6,2.6,0,0,0,2.62-2.41l-.43-1.21A3.34,3.34,0,0,0,29.57,517.73Z" transform="translate(38.61 28.25)"/>
            <path class="cls-5" d="M31.67,237.67a3.43,3.43,0,0,0-2.79,1.68A2.36,2.36,0,0,0,29,241.6a2,2,0,0,0,1.63.81,3.47,3.47,0,0,0,3-2,2.06,2.06,0,0,0-.6-2.27A2,2,0,0,0,31.67,237.67Z" transform="translate(38.61 28.25)"/>
            <path class="cls-5" d="M15.08,171.47l1.39,1.72h1.26l1.2-.66a2.21,2.21,0,0,0,.15-2.31,2.84,2.84,0,0,0-4.23-.43,1.94,1.94,0,0,0-.4,1.63l.73.63A1,1,0,0,1,15.08,171.47Z" transform="translate(38.61 28.25)"/>
            <path class="cls-5" d="M14.57,213.61l1.1,2a6.65,6.65,0,0,0,.85.06,2.94,2.94,0,0,0,3.24-2.52l-1.52-1.61C17.55,211.63,15.47,211.8,14.57,213.61Z" transform="translate(38.61 28.25)"/>
            <path class="cls-5" d="M30.06,119.76,28.79,121a3.09,3.09,0,0,0,.69,2.51,3.38,3.38,0,0,0,2.62,1,5.18,5.18,0,0,0,.76-.05l1.28-1.25a3.21,3.21,0,0,0-.69-2.53A3.78,3.78,0,0,0,30.06,119.76Z" transform="translate(38.61 28.25)"/>
            <path class="cls-5" d="M291.31,185l-1.18-1c-2.33-.28-3.83.64-4.08,2.45l1.71,1.61.55,0,.76,0a2.19,2.19,0,0,0,2.24-3.15Z" transform="translate(38.61 28.25)"/>
            <path class="cls-5" d="M58.16,198.4a2.09,2.09,0,0,0-2-1.37,2.24,2.24,0,0,0-2,1.21c-.31.63-.47,1.67.6,3.09l2,.27C58.37,200.28,58.41,199.13,58.16,198.4Z" transform="translate(38.61 28.25)"/>
            <path class="cls-5" d="M62.22,456.21l-1.11-1.61-.54-.05A3.86,3.86,0,0,0,57,457.33a2.16,2.16,0,0,0,1.43,2.46l1.68-.49a2.82,2.82,0,0,1,.52-.52A4.13,4.13,0,0,0,62.22,456.21Z" transform="translate(38.61 28.25)"/>
            <path class="cls-5" d="M50.3,92.81l-2-1.29-1.87.85L47,95.09S50.3,94.49,50.3,92.81Z" transform="translate(38.61 28.25)"/>
            <path class="cls-5" d="M45.34,90.88,44,89.16H42.71l-1.4,1.58c0,.2,0,.43,0,.65,0,.8,0,2.67,1.71,3.06L45,93.09a3.25,3.25,0,0,0,1-1.52l-.6-.8A.41.41,0,0,1,45.34,90.88Z" transform="translate(38.61 28.25)"/>
            <path class="cls-5" d="M-28.87,377.74l-1.3.42c-1.16,1.23-1.07,3.21-1,4.79l1.68,1.35c.09,0,.13,0,.38.15a3.36,3.36,0,0,0,1.72.49h.24l1.15-2.1a5,5,0,0,1-.29-1.33C-26.45,380.26-26.73,378.16-28.87,377.74Z" transform="translate(38.61 28.25)"/>
            <path class="cls-5" d="M-32.72,321.22l-2-1.43a1.85,1.85,0,0,1-.5-.26,2.73,2.73,0,0,0-1.49-.55,2,2,0,0,0-1.89,1.68l1,1.77a1,1,0,0,1-.39-.33l1.23,1.62a8.19,8.19,0,0,0,.83,0C-33.24,323.77-32.79,321.82-32.72,321.22Z" transform="translate(38.61 28.25)"/>
            <path class="cls-5" d="M-27.14,485.67l-1.17-1.78a2.75,2.75,0,0,0-3.06-1.18l-.93.82a2.59,2.59,0,0,0,.24,2.51,3.21,3.21,0,0,0,2.62,1.4A2.29,2.29,0,0,0-27.14,485.67Z" transform="translate(38.61 28.25)"/>
            <path class="cls-5" d="M-29.58,385.47l-1.65-1.38a2.08,2.08,0,0,1-.33-.22,2.52,2.52,0,0,0-1.48-.61c-.44,0-1.49.18-1.85,1.83l.91,1.65a5,5,0,0,0,2.32.8A2,2,0,0,0-29.58,385.47Z" transform="translate(38.61 28.25)"/>
            <path class="cls-5" d="M-.18,352.76-1.79,354a3.36,3.36,0,0,0,.51,2.76l1.36.62h0a2.26,2.26,0,0,0,2.11-2.12C2.27,354.26,1.68,353-.18,352.76Z" transform="translate(38.61 28.25)"/>
            <path class="cls-5" d="M246.93,140.34l-1.34-1.9h-1.86l-1.38,1.73a4.69,4.69,0,0,1,0,.87,3.44,3.44,0,0,0,.54,2.8,2.05,2.05,0,0,0,1.57.66,1.42,1.42,0,0,0,.64-.1,2,2,0,0,0,1.51-.65,3.26,3.26,0,0,0,.44-2.7C247,140.8,246.93,140.4,246.93,140.34Z" transform="translate(38.61 28.25)"/>
            <path class="cls-5" d="M242.12,108.38a1.82,1.82,0,0,0-1.34-.58l-.46.06-1.12,1.2c-.42,3.41,1.76,4,2.45,4.09l1.44-.92,0,0a4.58,4.58,0,0,0,2.44.89h0l1.36-1a1.65,1.65,0,0,1,.18-.41,3.64,3.64,0,0,0,.46-2.75l-.86-1A6.16,6.16,0,0,0,242.12,108.38Z" transform="translate(38.61 28.25)"/>
            <path class="cls-5" d="M-6.41,471.12a2.35,2.35,0,0,0-.37,2l1.37,1.12h.08a3.11,3.11,0,0,0,3.15-2.19l-1.77-1.87A3,3,0,0,0-6.41,471.12Z" transform="translate(38.61 28.25)"/>
            <path class="cls-5" d="M-8,398.1a2.72,2.72,0,0,0,2.77-2.66,2.62,2.62,0,0,0-2.51-2.72l-1.46,1.08a1.51,1.51,0,0,1-.19.39,3.56,3.56,0,0,0-.44,2.75L-8.81,398A3.42,3.42,0,0,0-8,398.1Z" transform="translate(38.61 28.25)"/>
            <path class="cls-5" d="M-9.2,486.1a2,2,0,0,0,2,1.61A2,2,0,0,0-5.68,487a3,3,0,0,0,.44-2.55l-1.9-1.05C-9.36,484.22-9.28,485.67-9.2,486.1Z" transform="translate(38.61 28.25)"/>
            <path class="cls-5" d="M129.22,46.07a1.63,1.63,0,0,1-.39-.17,3.81,3.81,0,0,0-2.72-.43L125,46.64c-.39,2.57.56,4.39,2.75,5.28L129.8,50a3.14,3.14,0,0,0,.47-2.94Z" transform="translate(38.61 28.25)"/>
            <path class="cls-5" d="M139.53,478.3l-1.39,1.11a4.5,4.5,0,0,0,.37,3.22,1.79,1.79,0,0,1,.24,1.23l1.2,1.63a7.43,7.43,0,0,0,1.11.08,4.1,4.1,0,0,0,3.25-1.3c.93-1,1.25-2.59,1-4.73l-1.41-1.24Z" transform="translate(38.61 28.25)"/>
            <path class="cls-5" d="M148.61,113.36l2.31-1.18a3.26,3.26,0,0,0-3.24-2.81,3.3,3.3,0,0,0-2.46,1.07,3.6,3.6,0,0,0-.86,2.75l1,1.23a3.77,3.77,0,0,0,1.08.16,3.71,3.71,0,0,0,2.69-1.34A2.6,2.6,0,0,1,148.61,113.36Z" transform="translate(38.61 28.25)"/>
            <path class="cls-5" d="M150.63,129.77h-.35c-1.58,0-2.51.58-2.75,1.71l1.17,1.7a4.73,4.73,0,0,1,.58.37,3.72,3.72,0,0,0,2.08.91,2.09,2.09,0,0,0,2-1.59l-.9-1.73Z" transform="translate(38.61 28.25)"/>
            <path class="cls-5" d="M135.36,532.49c-1,0-2.55.84-2.77,1.7a2.31,2.31,0,0,0,.12,2.23,1.9,1.9,0,0,0,1.63.8,3.42,3.42,0,0,0,2.95-2,2,2,0,0,0-.58-2.29A2.06,2.06,0,0,0,135.36,532.49Z" transform="translate(38.61 28.25)"/>
            <path class="cls-5" d="M157,80a4.14,4.14,0,0,0-3.09,1.7l-.12,1.17a2.43,2.43,0,0,0,2.27,1.81c1.52,0,2.94-1.51,3.54-3l-1.73-1.88A8.44,8.44,0,0,1,157,80Z" transform="translate(38.61 28.25)"/>
            <path class="cls-5" d="M133.27,261.89l1.11-.55a2.36,2.36,0,0,0-1.35-4.12l-1.84,1.3a2.67,2.67,0,0,0-.55,2.19l1.39,1.18Z" transform="translate(38.61 28.25)"/>
            <path class="cls-5" d="M171.38,376.48,170,377.9v1.87l1.42,1.42h1.24l1.47-1.34a2.65,2.65,0,0,0,.57-2.16l-1.39-1.21Z" transform="translate(38.61 28.25)"/>
            <path class="cls-5" d="M192.58,317a2.05,2.05,0,0,0,2.08-2.08l-.91-1.42a5.28,5.28,0,0,0-2.34-.8,2,2,0,0,0-2.07,2.09l.91,1.4A5.19,5.19,0,0,0,192.58,317Z" transform="translate(38.61 28.25)"/>
            <path class="cls-5" d="M401,221.59l-1.15.63c-.11,0-.24-.12-.35-.17a3.84,3.84,0,0,0-1.82-.58l-.73.12-.9.89a6.71,6.71,0,0,1-.51,1,8.28,8.28,0,0,0-.74,1.49l.92,1.83a15.38,15.38,0,0,1,1.9.77,15.54,15.54,0,0,0,3.24,1.14l1.63-1.08a4.51,4.51,0,0,1,.53-.29l.78-1.48C403.66,224.91,403.27,222.41,401,221.59Z" transform="translate(38.61 28.25)"/>
            <path class="cls-5" d="M176.47,357.46a3.11,3.11,0,0,0,3.11-2.17l-1.72-1.91a3.05,3.05,0,0,0-2.49.92,2.36,2.36,0,0,0-.4,2l1.36,1.14Z" transform="translate(38.61 28.25)"/>
            <path class="cls-5" d="M170.16,66.77a2.23,2.23,0,0,0,1.5,1.44l.94-.09a2.18,2.18,0,0,0,1.29-2.51,2.64,2.64,0,0,0-2.44-2.07,2.16,2.16,0,0,0-2,1.6L170.76,67A1.12,1.12,0,0,1,170.16,66.77Z" transform="translate(38.61 28.25)"/>
            <path class="cls-5" d="M126.58,93.74l-1.42-1.48h-1.88l-1.42,1.34a3.08,3.08,0,0,0,1.66,2.94,2.34,2.34,0,0,1,.38.28h0l2.33.29a2.21,2.21,0,0,0,.44-2.81A.72.72,0,0,1,126.58,93.74Z" transform="translate(38.61 28.25)"/>
            <path class="cls-5" d="M74.44,74a10.35,10.35,0,0,0-3.08,1l-.71,1.18a4.75,4.75,0,0,0,1,3.51l1.09.46c2.87-.06,3.87-2.19,4.52-3.59.15-.3.28-.59.43-.87l-1.67-2C75.5,73.76,75,73.87,74.44,74Z" transform="translate(38.61 28.25)"/>
            <path class="cls-5" d="M70.8,131.83c.09.16-.11.55-.25.86a2.15,2.15,0,0,0-.15,2.14,1.84,1.84,0,0,0,1.58.87l1.18-.52c.68-.83,1.52-1.85,1.29-3.13A3.11,3.11,0,0,0,72.79,130Z" transform="translate(38.61 28.25)"/>
            <path class="cls-5" d="M83.84,154.49l-1.16-2.25H81.44L80,153.47a2.5,2.5,0,0,0-.6,1.12l1.38,1.83a2.6,2.6,0,0,0,1.31.42,2,2,0,0,0,1.86-1.4l-.35-.65A1.31,1.31,0,0,1,83.84,154.49Z" transform="translate(38.61 28.25)"/>
            <path class="cls-5" d="M121.19,478.35l-1.8,1.53c0,.2,0,.43,0,.66,0,.8,0,2.67,1.7,3.06l1.73-1.33a2.54,2.54,0,0,1,.19-.8,2.24,2.24,0,0,0,0-1.86A2.8,2.8,0,0,0,121.19,478.35Z" transform="translate(38.61 28.25)"/>
            <path class="cls-5" d="M68.67,440.22l-1.76,1.21a2.49,2.49,0,0,0-.6,1.11l1.18,1.71a2.36,2.36,0,0,0,1.15.62l1.7-1.2a2.5,2.5,0,0,0,.61-1.14l-1.19-1.7A2.71,2.71,0,0,0,68.67,440.22Z" transform="translate(38.61 28.25)"/>
            <path class="cls-5" d="M89.09,85a5,5,0,0,1,.51-1.71,7.18,7.18,0,0,0,.76-2.66L89,79.16c-.49,0-.73-.21-1.25-.64a4.28,4.28,0,0,0-4-1.22l-.47.15a5.59,5.59,0,0,0-3.19,6.49L80.89,85a8.21,8.21,0,0,0,3.35.87l.66,0a8,8,0,0,1,2.37.45Z" transform="translate(38.61 28.25)"/>
            <path class="cls-5" d="M305.14,188.77a2.55,2.55,0,0,0,1.17-3.05l-.82-.95c-1.85-.79-3.7.88-3.9,2.51a2.36,2.36,0,0,0,1.75,2.67Z" transform="translate(38.61 28.25)"/>
            <path class="cls-5" d="M345.9,112.87l-1.77,1.2a2.62,2.62,0,0,0-.58,1.11l1.18,1.71a2.41,2.41,0,0,0,1.11.61l1.71-1.19a2.25,2.25,0,0,0,.63-1.15L347,113.45A2.59,2.59,0,0,0,345.9,112.87Z" transform="translate(38.61 28.25)"/>
            <path class="cls-5" d="M103.3,397.73,101.88,399a4,4,0,0,0,.73,3.19,2.85,2.85,0,0,0,2.18.89l.55,0,1.24-1.41v-2.48l-1.42-1.42Z" transform="translate(38.61 28.25)"/>
            <path class="cls-5" d="M99,496l-1.93,1.89a4.41,4.41,0,0,1,.16.81c.11.93.39,3.1,2.72,3.1l.41,0,1.23-1.18C102.05,497.58,100,496.51,99,496Z" transform="translate(38.61 28.25)"/>
            <path class="cls-5" d="M98.51,225.56a2.65,2.65,0,0,0,.56-2.19l-1.4-1.18H96.43L95,223.54a2.65,2.65,0,0,0-.56,2.19l1.4,1.18h1.24Z" transform="translate(38.61 28.25)"/>
            <path class="cls-5" d="M325.32,222c-2.8,0-6.09,2.75-6.77,5.65l.64,1.54a5.18,5.18,0,0,0,2.66.72,11.37,11.37,0,0,0,5.06-1.67,15.31,15.31,0,0,1,1.65-.8l.9-1.62C329,223.38,327.41,222,325.32,222Z" transform="translate(38.61 28.25)"/>
            <path class="cls-5" d="M605.9,443.49a2.35,2.35,0,0,0,.33-2l-1.38-1.1h-1.24l-1.39,1.23a2.44,2.44,0,0,0-.61,1.12l1.78,1.72A3,3,0,0,0,605.9,443.49Z" transform="translate(38.61 28.25)"/>
            <path class="cls-5" d="M130.48,316.33a6.28,6.28,0,0,0,.75,0,2.2,2.2,0,0,0,2.24-3.16l-1.18-1c-2.4-.29-3.83.66-4.07,2.46l1.7,1.61Z" transform="translate(38.61 28.25)"/>
            <path class="cls-5" d="M589.47,464.56a4.1,4.1,0,0,0-2.46,1.2c-.31.31-1.27,1.25-.8,2.36l1.62,1c.89,0,2.91-.71,3.45-2a1.79,1.79,0,0,0-.39-2A2,2,0,0,0,589.47,464.56Z" transform="translate(38.61 28.25)"/>
            <path class="cls-5" d="M584.08,332.87l0,1.55c-.16,0-.25-.13-.46-.09v2.51c.2,0,.28-.08.44-.09v1.55a2.72,2.72,0,1,0,0-5.43Z" transform="translate(38.61 28.25)"/>
            <path class="cls-5" d="M156.06,289.45a2.29,2.29,0,0,0-.33,2l1.33,1.1h.13a3.1,3.1,0,0,0,3.13-2.23l-1.78-1.85A3.06,3.06,0,0,0,156.06,289.45Z" transform="translate(38.61 28.25)"/>
            <path class="cls-5" d="M159.27,208l-1.44.53a5.81,5.81,0,0,0-.84,2,4.12,4.12,0,0,1-.38,1.08l.45,2.13a3.24,3.24,0,0,0,1.48.39,2.7,2.7,0,0,0,2.59-2.69C161.3,210,160.71,208.28,159.27,208Z" transform="translate(38.61 28.25)"/>
            <path class="cls-5" d="M156.83,270.16c-2.18-2.05-6-1.83-7.49.23a3.38,3.38,0,0,0-.46,3.1l2.66.11a1.72,1.72,0,0,1-1,.1,1.68,1.68,0,0,1,.23,1.37l1.44,1.9c1.8-.13,4.83-1.05,5.08-5.7Z" transform="translate(38.61 28.25)"/>
            <path class="cls-5" d="M50.34,165.66a2.43,2.43,0,0,0,2.3,2.61l1.29-.56a5.68,5.68,0,0,0,.84-2,3.79,3.79,0,0,1,.39-1.07l-1.3-2.3A3.66,3.66,0,0,0,50.34,165.66Z" transform="translate(38.61 28.25)"/>
            <path class="cls-5" d="M62.93,331.5l-1.31-1.19A2.69,2.69,0,0,0,60,329.7l-.53.05-1,.64a2.22,2.22,0,0,0-.15,2.32,2.61,2.61,0,0,0,2.32,1.23,2.39,2.39,0,0,0,1.89-.81A1.94,1.94,0,0,0,62.93,331.5Z" transform="translate(38.61 28.25)"/>
            <path class="cls-5" d="M154.86,348.12l.49.1,1.69-1.07a3.63,3.63,0,0,0-.56-3.14,2.93,2.93,0,0,0-4.35-.05l-.39.82C151.41,347.51,153.91,348,154.86,348.12Z" transform="translate(38.61 28.25)"/>
            <path class="cls-5" d="M583.33,439.77,581.62,441A2.59,2.59,0,0,0,581,442l1.2,1.76a2.49,2.49,0,0,0,1.17.61l1.67-1.22a2.48,2.48,0,0,0,.59-1.06l-1.19-1.77A2.56,2.56,0,0,0,583.33,439.77Z" transform="translate(38.61 28.25)"/>
            <path class="cls-5" d="M582,319.54a4.49,4.49,0,0,0,.62,0l1.22-1.41V315l-1.41-1.42h-1.89l-1.42,1.33c-.09,1.41-.09,2.86.82,3.82a2.72,2.72,0,0,0,2.06.83Z" transform="translate(38.61 28.25)"/>
            <path class="cls-5" d="M88.8,237.54a2.6,2.6,0,0,0,.73-2.4,2.7,2.7,0,0,0-2-1.55l-1.64,2a.63.63,0,0,1,0-.42,2.68,2.68,0,0,1-.22.32,2.09,2.09,0,0,0-.5,2.07,2.21,2.21,0,0,0,1.71,1.26l1.57-.74A4.69,4.69,0,0,1,88.8,237.54Z" transform="translate(38.61 28.25)"/>
            <path class="cls-5" d="M566.9,543.41l-.41,0-.64.76a1.26,1.26,0,0,1,.54-.13h0l-1.68,1.4v1.25l.66,1.2a2.45,2.45,0,0,0,1.31.41,2.39,2.39,0,0,0,2.24-2.6,2.79,2.79,0,0,0-.35-1.37A2,2,0,0,0,566.9,543.41Z" transform="translate(38.61 28.25)"/>
            <path class="cls-5" d="M126.77,286.7l-1.26,1.41v2.5l1.42,1.42h1.86l1.42-1.26a4,4,0,0,0-.73-3.2A3,3,0,0,0,126.77,286.7Z" transform="translate(38.61 28.25)"/>
            <path class="cls-5" d="M-34.66,270.51l-1.7,1.19a2.37,2.37,0,0,0-.61,1.12l1.21,1.72a2.44,2.44,0,0,0,1.13.59l1.69-1.18a2.52,2.52,0,0,0,.61-1.12l-1.19-1.71A2.55,2.55,0,0,0-34.66,270.51Z" transform="translate(38.61 28.25)"/>
            <path class="cls-5" d="M46.64,357.49l-2,1.66c.76,2.72,2.16,3,2.72,3a1.72,1.72,0,0,0,1.68-1.36C49.28,359.84,48.75,358.46,46.64,357.49Z" transform="translate(38.61 28.25)"/>
            <path class="cls-5" d="M165.41,278.88a2.52,2.52,0,0,0,1.18-3.07l-.82-.93c-1.84-.78-3.69.86-3.9,2.5a2.36,2.36,0,0,0,1.75,2.69Z" transform="translate(38.61 28.25)"/>
            <path class="cls-5" d="M36.18,303.1v1.47a2.25,2.25,0,0,0-1.38.49v1.25a1.56,1.56,0,0,0,1.18.56v1.48a2.34,2.34,0,0,0,1.66-.7,3,3,0,0,0,.83-2.11L37,305.6v-.06h1.45A2.29,2.29,0,0,0,36.18,303.1Z" transform="translate(38.61 28.25)"/>
            <path class="cls-5" d="M68.88,336.64a2.25,2.25,0,0,0-2.39,2l.79,1.45c.33.17.44.9.46,1.33l1.25,1.3.55,0a2.78,2.78,0,0,0,2.19-.9,3.89,3.89,0,0,0,.7-3.21l-.38-.81A5.28,5.28,0,0,0,68.88,336.64Z" transform="translate(38.61 28.25)"/>
            <path class="cls-5" d="M74,317.78a3,3,0,0,0-3.29.64l-.4.79a3.06,3.06,0,0,0,2.37,3.55,2.64,2.64,0,0,1,.62.28l2.3-1.26c0-.17,0-.19.14-.48a3.28,3.28,0,0,0,.49-2L74.84,318A2.44,2.44,0,0,1,74,317.78Z" transform="translate(38.61 28.25)"/>
            <path class="cls-5" d="M-3.64,436.73l-1.26.36A3.93,3.93,0,0,0-6,440a3.92,3.92,0,0,0,1.08,2.89l.77.38a6.84,6.84,0,0,0,1.07.08,5,5,0,0,0,3.11-1l.54-.92C1.17,437.71-1.88,437.09-3.64,436.73Z" transform="translate(38.61 28.25)"/>
            <path class="cls-5" d="M568.77,375.63c.17,0,.4,0,.59,0l1.51-1.42,0-1.56A2.18,2.18,0,0,0,569.3,371a3.14,3.14,0,0,0,1.59-2.13,2.44,2.44,0,0,0-1.5-2.83l-.65.38a2.55,2.55,0,0,0-2.06-1.19l-.88.18-.85,1.09a14.51,14.51,0,0,1-1-2.59l-1.21.3,1.2-.32-.28.07.28-.08-2.75.67v0c.11.45.11.45-.26.83a4.5,4.5,0,0,0-.45.49,3,3,0,0,0-1.49-.6l-1.58,1.57c0,.2,0,.42,0,.64,0,.81,0,2.7,1.74,3.07l1.32-.39a3.07,3.07,0,0,0,.24-.29,6.21,6.21,0,0,0,1.07.48l.28.12c-1,1.87-.52,4,1.36,5.93l2.26-.29c.12-.22.22-.43.33-.65a1.67,1.67,0,0,0,1.42.77l.49-.07,1-1.19C569,375.36,568.68,375.61,568.77,375.63Z" transform="translate(38.61 28.25)"/>
            <path class="cls-5" d="M-27.4,501.09a1.93,1.93,0,0,0-.4,1.63l.73.62a1.05,1.05,0,0,1-.11-.56l1.39,1.71h1.27l1.21-.68a2.23,2.23,0,0,0,.13-2.3A2.82,2.82,0,0,0-27.4,501.09Z" transform="translate(38.61 28.25)"/>
            <path class="cls-5" d="M611.91,340.64a1.29,1.29,0,0,0,.07-.21,1.05,1.05,0,0,1,.68.79,1.91,1.91,0,0,1,.06-.51,2.73,2.73,0,0,0-.38-2.3,1.79,1.79,0,0,0-1.37-.61l-.66.09-1,1.53c0,.16,0,.18-.14.47a3.21,3.21,0,0,0-.49,2l1.94,1.39a2.29,2.29,0,0,0,1,.3l.49-.4.21,0,0-.12,1-.84Z" transform="translate(38.61 28.25)"/>
            <path class="cls-5" d="M14.17,343.75l-2,1.45a1,1,0,0,1,.58-.9l-.42,0c-1.17-.06-2.06.14-2.52.84a2.43,2.43,0,0,0-.05,2.33l1,.85a3.49,3.49,0,0,0,.82.09c1.37,0,3.59-.73,3.94-2.31A2,2,0,0,0,14.17,343.75Z" transform="translate(38.61 28.25)"/>
            <path class="cls-5" d="M521.54-.14a2.15,2.15,0,0,0-1.43-2.45l-2,1.2a.86.86,0,0,1,.8-.62,4.07,4.07,0,0,1-.91-.4l-.46-.22-1.84.85A2.91,2.91,0,0,0,515.84,1a2.62,2.62,0,0,0,2.22,1C519.5,2.05,521.23,1.21,521.54-.14Z" transform="translate(38.61 28.25)"/>
            <path class="cls-5" d="M576.48,12.29l-.49,0-1.27,1.26a4,4,0,0,0,.71,3.15,3,3,0,0,0-1.51,0l-1,1.16c0,.32-.22.48-.71.92a5.86,5.86,0,0,0-.91.94l.93,2.31a2.57,2.57,0,0,0,2.19,1.29,3.63,3.63,0,0,0,.88-.12l.58-.31a5.47,5.47,0,0,0,1-4.8,2.24,2.24,0,0,0-.37-.64,3.42,3.42,0,0,0,1.18.2h0a4.75,4.75,0,0,0,.51,0l1.26-1.27a4,4,0,0,0-.76-3.19A2.87,2.87,0,0,0,576.48,12.29Z" transform="translate(38.61 28.25)"/>
            <path class="cls-5" d="M569.27,250.3H568l-1.41,1.23a2.67,2.67,0,0,0-.61,1.09l1.81,1.75a3,3,0,0,0,2.47-.92,2.39,2.39,0,0,0,.36-2Z" transform="translate(38.61 28.25)"/>
            <path class="cls-5" d="M561.89,540.1l-.92-1.77a1.11,1.11,0,0,1,.33.28l-1.41-1.6h-1.24l-1.46,1.34a2.69,2.69,0,0,0-.56,2.2l1.33,1.17a2.68,2.68,0,0,1,.8.19,2.84,2.84,0,0,0,1,.22C561.27,542.13,561.72,540.66,561.89,540.1Z" transform="translate(38.61 28.25)"/>
            <polygon class="cls-5" points="589.95 509.21 589.95 507.35 588.53 505.93 586.66 505.93 585.25 507.35 585.25 509.21 586.66 510.63 588.53 510.63 589.95 509.21"/>
            <path class="cls-5" d="M548.21,34.5a3.09,3.09,0,0,0-.69-2.51,3.7,3.7,0,0,0-3.39-.92l-1.23,1.11a3.6,3.6,0,0,0,.59,3.12,2.66,2.66,0,0,0,2.1,1,3.12,3.12,0,0,0,2.22-1Z" transform="translate(38.61 28.25)"/>
            <path class="cls-5" d="M550.11,514.59l-.55.31a3.72,3.72,0,0,0-.82,3.89,2.69,2.69,0,0,0,2.57,1.74,3.27,3.27,0,0,0,.75-.09l1.1-1.69a5.52,5.52,0,0,1,0-.87,3.44,3.44,0,0,0-.52-2.79A2.31,2.31,0,0,0,550.11,514.59Z" transform="translate(38.61 28.25)"/>
            <path class="cls-5" d="M487-25.54a2,2,0,0,0,2,1.61,2,2,0,0,0,1.53-.73,3,3,0,0,0,.47-2.53L489-28.25C486.8-27.41,486.88-26,487-25.54Z" transform="translate(38.61 28.25)"/>
            <path class="cls-5" d="M602,188.79a2.35,2.35,0,0,0-.37,2l1.37,1.12h.09a3.12,3.12,0,0,0,3.13-2.2l-1.78-1.86A2.91,2.91,0,0,0,602,188.79Z" transform="translate(38.61 28.25)"/>
            <path class="cls-5" d="M538.84,148.29l1.08,1-1.23-.71,1.54,2.1.51-.1c.93-.16,3.4-.6,3.07-3.32L542.16,146A3.66,3.66,0,0,0,538.84,148.29Z" transform="translate(38.61 28.25)"/>
            <path class="cls-5" d="M485.8,500.17a3.09,3.09,0,0,0-2.5.92,2.39,2.39,0,0,0-.37,2l1.33,1.12h.19a3.09,3.09,0,0,0,3.09-2.2Z" transform="translate(38.61 28.25)"/>
            <path class="cls-5" d="M584.25,62.28l-1.41,1.5a1.55,1.55,0,0,1-.38,1l1.17,2.2h2.51l1.42-1.42V63.7l-1.42-1.42Z" transform="translate(38.61 28.25)"/>
            <path class="cls-5" d="M612.43,53.81a5.92,5.92,0,0,0-1-1.18l-2.18.46-.44.85a18.56,18.56,0,0,0-1.55,3.81l1.16,1.74.75.13A17.86,17.86,0,0,0,612,60c2.74,0,3.78-1.46,4.18-2.68L615,55.42A2.92,2.92,0,0,1,612.43,53.81Z" transform="translate(38.61 28.25)"/>
            <path class="cls-5" d="M592.72,132.3l-.29.2-.32-.83c-2-.5-4,.57-4.1,2.19a2.28,2.28,0,0,0,1.85,2.36l.42,1.07.41.32c1.94,1.54,2.35,1.67,5.37,1.84l1.32-2.12a10,10,0,0,1-.51-1C596.08,134.81,595.12,132.87,592.72,132.3Z" transform="translate(38.61 28.25)"/>
            <path class="cls-5" d="M513.27,481.75a2.26,2.26,0,0,0-.33,2l1.33,1.09h.14a3.07,3.07,0,0,0,3.1-2.19l-1.74-1.88A3,3,0,0,0,513.27,481.75Z" transform="translate(38.61 28.25)"/>
            <path class="cls-5" d="M509.5,301.67a2.16,2.16,0,0,0-1.85,3.45,2.48,2.48,0,0,0,2,.92,2.43,2.43,0,0,0,2.07-1,2.08,2.08,0,0,0,.15-2A2.48,2.48,0,0,0,509.5,301.67Z" transform="translate(38.61 28.25)"/>
            <path class="cls-5" d="M423.49,81.91c0-1.67,0-3.39-1.09-4.51a3.22,3.22,0,0,0-3.09-.8l-1.16,1.63c.28,1.72.75,4.59,3.48,5.49l1.86-1.34Z" transform="translate(38.61 28.25)"/>
            <path class="cls-5" d="M535.73,420.9a6,6,0,0,1-.58-.41h-1.71a3.88,3.88,0,0,0-1.57,3.63,4,4,0,0,0,2.5,3.2l1.93-1.11c0,.3-.29.53-.14.56l.56,0,1.48-1.26C538.52,422.74,536.83,421.64,535.73,420.9Z" transform="translate(38.61 28.25)"/>
            <path class="cls-5" d="M531.3,340.74,530,339.59a2.7,2.7,0,0,0-1.69-.62l-.54,0-.94.65a2.19,2.19,0,0,0-.15,2.3,2.61,2.61,0,0,0,2.35,1.24,2.4,2.4,0,0,0,1.9-.82A1.92,1.92,0,0,0,531.3,340.74Z" transform="translate(38.61 28.25)"/>
            <path class="cls-5" d="M449.09,9.87c-.13-4-4.41-4.4-5.69-2.67l1,2.24a2.49,2.49,0,0,1,.29.36,3,3,0,0,0,2.64,1.56h0a3.34,3.34,0,0,0,.61,0Z" transform="translate(38.61 28.25)"/>
            <path class="cls-5" d="M424.91,67.17c-.57,0-2.26,0-3.06,1.29s-.06,2.8.19,3.3l1.07.79a7.31,7.31,0,0,0,.91.06,3.14,3.14,0,0,0,2.51-1,3.8,3.8,0,0,0,.66-3.16l-1.26-1.2A7.68,7.68,0,0,0,424.91,67.17Z" transform="translate(38.61 28.25)"/>
            <path class="cls-5" d="M438.32,89.86l-1.62-2c-.39,0-.86-.06-1.27-.06a2.39,2.39,0,0,0-2,.87,2.44,2.44,0,0,0-.2,2.28l1.44,1C436.5,91.78,437.73,91.09,438.32,89.86Z" transform="translate(38.61 28.25)"/>
            <path class="cls-5" d="M523.32,191c-2.36,0-3.49,1.06-4,2l.17,1.67a3.08,3.08,0,0,0,2.27.84h0a3.57,3.57,0,0,0,2.59-1,2.75,2.75,0,0,0,.76-2.1L523.76,191Z" transform="translate(38.61 28.25)"/>
            <path class="cls-5" d="M521.8,37l1.4-1.22a2.48,2.48,0,0,0,.61-1.14l-1.32-1.77a2.63,2.63,0,0,0-1.66-.59l-.53,0-1.18,1.4v1.86L520.54,37Z" transform="translate(38.61 28.25)"/>
            <path class="cls-5" d="M76.13,361.1l-1.86,1.51a.78.78,0,0,1,.12-.53l-.36.36a2.47,2.47,0,0,0-1,2.33,2.19,2.19,0,0,0,1.63,1.53l1.86-1.51a.78.78,0,0,1-.11.53,3,3,0,0,1,.36-.35,2.5,2.5,0,0,0,1-2.35A2.16,2.16,0,0,0,76.13,361.1Z" transform="translate(38.61 28.25)"/>
            <path class="cls-5" d="M703,425.55l1.4-1.25a2.4,2.4,0,0,0,.6-1.11l-1.47-1.73a1.73,1.73,0,0,1-1-.4l-2.18,1.2v1.87l1.42,1.42Z" transform="translate(38.61 28.25)"/>
            <path class="cls-5" d="M528.41,72.85,526.85,74a4.88,4.88,0,0,1-.2.65,4.61,4.61,0,0,0-.32,2,2.05,2.05,0,0,0-1,.65,1.93,1.93,0,0,0-.4,1.63l.73.62a1.08,1.08,0,0,1-.11-.57L527,80.67h1.25l1.19-.65a2.23,2.23,0,0,0,.22-2.2,4.77,4.77,0,0,0,.6-3.52A2.14,2.14,0,0,0,528.41,72.85Z" transform="translate(38.61 28.25)"/>
            <path class="cls-5" d="M686.89,401.42a2.72,2.72,0,0,0-2,.76,2.57,2.57,0,0,0-.71,1.74h0a3,3,0,0,0,3,2.87l-.09-1.48c.09,0,.13.08.22.07v-2.51c-.17,0-.22.07-.36.07Z" transform="translate(38.61 28.25)"/>
            <path class="cls-5" d="M680.82,240.31h-.44l-1.3,1.12a3.24,3.24,0,0,0,1.56,3.72,1.88,1.88,0,0,1,.47.38l2.09.44a3.12,3.12,0,0,0,1.35-3.51C684.1,241.12,682.71,240.31,680.82,240.31Z" transform="translate(38.61 28.25)"/>
            <path class="cls-5" d="M688.27,301.56l-1.72,1.21a2.53,2.53,0,0,0-.6,1.13l1.2,1.69a2.44,2.44,0,0,0,1.1.61L690,305a2.51,2.51,0,0,0,.59-1.1l-1.21-1.72A2.45,2.45,0,0,0,688.27,301.56Z" transform="translate(38.61 28.25)"/>
            <polygon class="cls-5" points="731.56 174.25 730.14 175.67 730.14 177.53 731.56 178.95 733.44 178.95 734.86 177.53 734.86 175.67 733.44 174.25 731.56 174.25"/>
            <path class="cls-5" d="M700.74,316.21l-2.32,1.31c1,6.2,5.25,15,11.22,19.08l1.84-2.14c-2-2.13-3.21-5.06-4.52-8.16C705.38,322.61,703.77,318.79,700.74,316.21Z" transform="translate(38.61 28.25)"/>
            <polygon class="cls-5" points="779.04 370.38 777.63 371.8 777.63 373.66 779.04 375.08 780.91 375.08 782.33 373.66 782.33 371.8 780.91 370.38 779.04 370.38"/>
            <path class="cls-5" d="M716.87,165.52v-1.86l-1.36-1.42h-.44a4.41,4.41,0,0,0-3.08,1l-.39.58a2.18,2.18,0,0,0,2.23,3.17c.24,0,.5,0,.75,0a6.66,6.66,0,0,1,.69,0Z" transform="translate(38.61 28.25)"/>
            <path class="cls-5" d="M722.79,364.7l-1.87,1.13a2.72,2.72,0,0,0-.62,1.07l1.31,1.84a2.63,2.63,0,0,0,1.66.6l.54,0,1.17-1.37A3.13,3.13,0,0,0,722.79,364.7Z" transform="translate(38.61 28.25)"/>
            <path class="cls-5" d="M692.48,178.71l-2.19,1.19v1.25l.56,1.13a3.07,3.07,0,0,0,1.84.73c.63,0,1.78-.28,2.25-2.14l-1.46-1.77A1.59,1.59,0,0,1,692.48,178.71Z" transform="translate(38.61 28.25)"/>
            <path class="cls-5" d="M638.61,323.75a2.37,2.37,0,0,0,2.24,2.45l1.74-1.6a3.15,3.15,0,0,0,.94-.88l-.84-2.16C640.65,321,638.75,322.15,638.61,323.75Z" transform="translate(38.61 28.25)"/>
            <path class="cls-5" d="M672,177.89l-1.7,1.18a6,6,0,0,1-.37.53,2.44,2.44,0,0,0-.68,2.47,1.9,1.9,0,0,0,1.62,1.11l1.66-1.36a2.52,2.52,0,0,1-.51.44l2.31-1.11V179.9l-1.22-1.4A2.43,2.43,0,0,0,672,177.89Z" transform="translate(38.61 28.25)"/>
            <path class="cls-5" d="M643.22,104.81l-1-2.55a2.5,2.5,0,0,0-2,.83,3.14,3.14,0,0,0-.53,2.68l1.38,1.2h.21c1.21,0,2.35,0,2.75-1.1.24-.67,0-1.29-.85-2A.87.87,0,0,1,643.22,104.81Z" transform="translate(38.61 28.25)"/>
            <path class="cls-5" d="M642.76,21.79A2.68,2.68,0,0,0,642.2,24l1.4,1.21h1.24l1.12-.55a2.74,2.74,0,0,0,.65-2.52,2.63,2.63,0,0,0-2-1.61Z" transform="translate(38.61 28.25)"/>
            <path class="cls-5" d="M634.39,328.75l-1.08-1.59a2,2,0,0,1-.41-.17,3.7,3.7,0,0,0-2.68-.46l-1.14,1.4v1.87l1.25,1.41c.3,0,.57.05.83.05A2.93,2.93,0,0,0,634.39,328.75Z" transform="translate(38.61 28.25)"/>
            <path class="cls-5" d="M525.13-18.18a3.15,3.15,0,0,0-2.25.84l.48,2.35a4.31,4.31,0,0,1,1.26.88,5.65,5.65,0,0,0,4,1.73H529l1.34-1.47C530.22-16.25,527.41-18.18,525.13-18.18Z" transform="translate(38.61 28.25)"/>
            <path class="cls-5" d="M623.63,423.32l-1.42,1.32a4.44,4.44,0,0,0,1,3.47,4.12,4.12,0,0,0,3.15,1.19l.49,0,1.34-2.36a3,3,0,0,0,.57-2.42l-1.4-1.18Z" transform="translate(38.61 28.25)"/>
            <path class="cls-5" d="M635.33,460.82l-1.23,1.11a3.43,3.43,0,0,0,.59,2.92,2.91,2.91,0,0,0,2.28,1.09,2.85,2.85,0,0,0,2.06-.86l.38-.83a3.09,3.09,0,0,0-.69-2.5A3.72,3.72,0,0,0,635.33,460.82Z" transform="translate(38.61 28.25)"/>
            <path class="cls-5" d="M38.83,190.32,38,188a1.87,1.87,0,0,1,0-.95l-1.43-1.6a4.78,4.78,0,0,0-2,.48,1.78,1.78,0,0,1-1.41.17l-1.74,1.42a1.73,1.73,0,0,1-.4,1.08l2.29,1.73a3.8,3.8,0,0,1,.94.38,4.75,4.75,0,0,0,2.26.71A3.2,3.2,0,0,0,38.83,190.32Z" transform="translate(38.61 28.25)"/>
            <path class="cls-5" d="M557.12,32.84l-.42,0-.66.77a1.37,1.37,0,0,1,.62-.14l-1.73,1.38v1.26l.66,1.19a2.27,2.27,0,0,0,3.55-2.18,2.62,2.62,0,0,0-.34-1.36A2,2,0,0,0,557.12,32.84Z" transform="translate(38.61 28.25)"/>
            <path class="cls-5" d="M665.41,279.08a.7.7,0,0,1,.13.38,5.56,5.56,0,0,1,.43-1.12c.62-1.44,1.68-3.85-.1-5.73l-2.41.63a9.7,9.7,0,0,1-.55,1.17c-.83,1.58-1.86,3.54-1.13,5.18a2.92,2.92,0,0,0,2.09,1.62Z" transform="translate(38.61 28.25)"/>
            <path class="cls-5" d="M659.85,194.42l1.42-1.31a3.17,3.17,0,0,0-.73-2.53,2.94,2.94,0,0,0-2.25-.87h-.41l-1.31,1.42V193l1.42,1.42Z" transform="translate(38.61 28.25)"/>
          </g>
        </g>
        <path class="cls-6" d="M470.86,53s-88.73-40.85-192.72-7" transform="translate(38.61 28.25)"/>
        <path class="cls-6" d="M35.5,322.5s-12,70,56,94" transform="translate(38.61 28.25)"/>
        <path class="cls-6" d="M677.5,400.5s30,1,28-62" transform="translate(38.61 28.25)"/>
        <path class="cls-6" d="M520.93,69.81S536.5,72.5,551.5,87.5" transform="translate(38.61 28.25)"/>
      </g>
    </g>
  </g>
</svg>
