<svg xmlns="http://www.w3.org/2000/svg" width="493" height="493" viewBox="0 0 493 493">
  <defs>
    <style>
      .cls-1 {
        fill: #809d7b;
      }
    </style>
  </defs>
  <g id="Layer_2" data-name="Layer 2">
    <g id="Layer_1-2" data-name="Layer 1">
      <g>
        <path class="cls-1" d="M246.5,33.33a212.34,212.34,0,1,1-83,16.73,212,212,0,0,1,83-16.73M246.5,0C110.36,0,0,110.36,0,246.5S110.36,493,246.5,493,493,382.64,493,246.5,382.64,0,246.5,0Z"/>
        <path class="cls-1" d="M237.8,205.08l-42.3,96.09V301c-2.17,5.66-8.83,10.49-15.82,10.49h-8.49c-6.67,0-13.33-4.83-15.82-10.49l-41.64-95.93a19.9,19.9,0,0,1-1.33-6.82,17.26,17.26,0,0,1,33.14-7l30.14,69.28,30.14-69.28c3.34-5.33,9.83-10.49,16-10.49,9.16,0,17.49,8.16,17.49,17.32A23,23,0,0,1,237.8,205.08Z"/>
        <path class="cls-1" d="M367.39,208.87l-36.58,49.89v38.6a16.76,16.76,0,0,1-16.68,16.86h-1.35a16.69,16.69,0,0,1-16.86-16.86v-38.6l-36.07-50.22a16.25,16.25,0,0,1-3-9.95c0-9.27,7.42-17.7,17-17.7A18.38,18.38,0,0,1,288,188.14l25.62,35.4c6.74-9.44,18.54-26,25.28-35.23a17.2,17.2,0,0,1,14.16-7.25c9.27,0,17.7,8.43,17.7,17.53A17.85,17.85,0,0,1,367.39,208.87Z"/>
      </g>
    </g>
  </g>
</svg>
