<svg xmlns="http://www.w3.org/2000/svg" width="219.32" height="96.67" viewBox="0 0 219.32 96.67">
  <defs>
    <style>
      .cls-1 {
        fill: #774d4b;
      }

      .cls-2 {
        fill: #f9cbcc;
      }
    </style>
  </defs>
  <g id="Layer_2" data-name="Layer 2">
    <g id="Layer_1-2" data-name="Layer 1">
      <g>
        <path class="cls-1" d="M215.5,35.91c-.54-1.11-1.05-2.15-1.49-3.19v0l-.38-.86c-.49-1.11-1.08-2.46-1.28-3.14a7,7,0,0,0,.75-3,5,5,0,0,0-2.06-4.1,6.13,6.13,0,0,0-3.66-1.14h-.59a9.16,9.16,0,0,0-4,1A10.08,10.08,0,0,0,200,23.08a10.81,10.81,0,0,0-.9.89,7.88,7.88,0,0,0-.76.77,9.2,9.2,0,0,0-.77.76,9.2,9.2,0,0,0-.76.77,9.2,9.2,0,0,0-.77.76,9.2,9.2,0,0,0-.76.77,9.2,9.2,0,0,0-.77.76c-.27.24-.52.5-.76.76s-.53.5-.77.77-.52.5-.76.76a9.18,9.18,0,0,0-.76.77,7.49,7.49,0,0,0-.75.74,12.45,12.45,0,0,0-3.17,2.51c-.26.24-.52.49-.76.76s-.52.5-.77.77-.5.48-.74.74c0-3.07-.43-5.09-1.23-6.49a11,11,0,0,0-.74-1.17,15.58,15.58,0,0,0,2.92-2.43c.26-.25.52-.51.76-.77s.52-.5.76-.76.53-.5.77-.77.52-.5.76-.76.53-.5.77-.77.52-.5.76-.76.53-.5.77-.77.52-.5.76-.76.53-.5.77-.76.52-.51.76-.77.53-.5.77-.76.48-.47.7-.71c3.35-2.43,5.28-5.79,5.28-9.34A8.56,8.56,0,0,0,192.12,0h-.6a8.47,8.47,0,0,0-3.85.92,8.59,8.59,0,0,0-3.35,2.33,9.32,9.32,0,0,0-.77.77,9.08,9.08,0,0,0-.76.76,9.32,9.32,0,0,0-.77.77,9.08,9.08,0,0,0-.76.76,9.32,9.32,0,0,0-.77.77,9.08,9.08,0,0,0-.76.76,7.88,7.88,0,0,0-.76.77,6.91,6.91,0,0,0-.77.76,7.88,7.88,0,0,0-.76.77,7.88,7.88,0,0,0-.77.76,7.9,7.9,0,0,0-.76.77,7.88,7.88,0,0,0-.77.76,9.08,9.08,0,0,0-.76.76,8.58,8.58,0,0,0-2.92,6.45A8.42,8.42,0,0,0,173,24.52h-.25a11.37,11.37,0,0,0-4,.68l-.09,0-.09,0c-.15.07-.3.14-.44.22l-.15.05-.08,0-.09,0a5.06,5.06,0,0,0-1.15.68,9.16,9.16,0,0,0-5-2.73,13.52,13.52,0,0,0-2.88-.32h-.6a14,14,0,0,0-6,1.34,11.65,11.65,0,0,0-1.33.64,16.94,16.94,0,0,0,.6-2.36V22.7a21.89,21.89,0,0,0,.18-2.45c0-7.93-6.19-11.54-11.94-11.54h-.6a10.52,10.52,0,0,0-4.51,1,5.56,5.56,0,0,0-2.42,1.68,4.55,4.55,0,0,0-.76.76,5.1,5.1,0,0,0-.77.77,4.55,4.55,0,0,0-.76.76,3.64,3.64,0,0,0-.5.46,11.92,11.92,0,0,0-10.36-5.4h-.6a10.49,10.49,0,0,0-4.51,1,5.56,5.56,0,0,0-2.42,1.68,5,5,0,0,0-.77.76,5,5,0,0,0-.76.77,5,5,0,0,0-.77.76,5,5,0,0,0-.76.77,4.61,4.61,0,0,0-.77.76,5,5,0,0,0-.76.77,4.21,4.21,0,0,0-.76.76,4.32,4.32,0,0,0-.77.77,4.21,4.21,0,0,0-.76.76,4.67,4.67,0,0,0-.77.77,4.21,4.21,0,0,0-.76.76,4.67,4.67,0,0,0-.77.77,4.21,4.21,0,0,0-.76.76,4.38,4.38,0,0,0-.85.87,4.69,4.69,0,0,0-1,2.82,5.35,5.35,0,0,0,.18,1.33,13.34,13.34,0,0,0-5.24-1.16h-.6a9.87,9.87,0,0,0-3.16.5,6.42,6.42,0,0,0-1.83-.26h-.6a6.18,6.18,0,0,0-1.81.21c-.3.07-.59.16-.89.25a40,40,0,0,0,2.46-5.94,18.36,18.36,0,0,0,1-5.66,11.46,11.46,0,0,0-2-6.73,8,8,0,0,0-4.77-3.3l-.2,0L81,4.07h-.75a8.79,8.79,0,0,0-3.91,1,14.48,14.48,0,0,0-5,3.63c-.26.24-.51.5-.77.77s-.51.49-.76.76l-.15.14c-.17-.34-.36-.67-.56-1a12.09,12.09,0,0,0-5.81-4.72,10.8,10.8,0,0,0-3.89-.72h-.6a10.09,10.09,0,0,0-4.5,1,10.33,10.33,0,0,0-3.48,2.31A34,34,0,0,0,46.34,6.2a28.67,28.67,0,0,0-5.48-.53h-.59A21.52,21.52,0,0,0,31,7.58,17.35,17.35,0,0,0,28.23,9a15.77,15.77,0,0,0-3,2.48c-.26.25-.52.5-.76.77s-.52.5-.77.76-.51.5-.76.77-.52.5-.77.76-.51.5-.76.77-.52.5-.76.76-.52.5-.77.77-.52.5-.76.76-.52.5-.77.77-.52.5-.76.76-.52.5-.77.77-.52.5-.76.76-.52.5-.77.76A15.69,15.69,0,0,0,13.13,24a17.94,17.94,0,0,0-2.66,6.14l0,.08,0,.29A19.91,19.91,0,0,0,10,34.25a16,16,0,0,0,.75,4.88l-.09.1c-.26.24-.51.5-.76.76s-.52.5-.77.77-.51.5-.76.76-.52.5-.77.77-.51.5-.76.76-.52.5-.77.77a18.18,18.18,0,0,0-2.72,3.24A20.57,20.57,0,0,0,0,58.45,20.32,20.32,0,0,0,5.49,72.51c4,4.23,9.76,6.54,16.61,6.67h1.23a19.53,19.53,0,0,0,14.5-6.41c.26-.25.51-.51.76-.77s.52-.5.77-.76.51-.51.76-.77.52-.5.77-.76.51-.5.76-.77.52-.5.77-.76l.16-.15a15.06,15.06,0,0,0,3.69,9.26l0,0a10.71,10.71,0,0,0,8.06,3.07h.77a20.09,20.09,0,0,0,11.49-3.9l0,0,0,0a4.67,4.67,0,0,0,.77-.77,4.67,4.67,0,0,0,.77-.77,5,5,0,0,0,.76-.76,19.63,19.63,0,0,0,9.19,2.24h.77a20.69,20.69,0,0,0,12-3.83A23.81,23.81,0,0,0,93,70.83,12.7,12.7,0,0,0,93.78,72c2,2.72,5.17,4.25,9.28,4.55h2a17.11,17.11,0,0,0,8.13-2,16.93,16.93,0,0,0,2.23-1.4,11.91,11.91,0,0,0,8.27,3.39h2.05a17.11,17.11,0,0,0,8.27-2.07,19.3,19.3,0,0,0,2.59-1.71c.17.15.35.29.53.43a4.55,4.55,0,0,0-.69,1,15.48,15.48,0,0,0-2,7.6,14.73,14.73,0,0,0,3.79,9.84,15.46,15.46,0,0,0,9.37,5h.12l1.51.1h.87a12.78,12.78,0,0,0,7.3-2.38,19.69,19.69,0,0,0,3-2.56c.26-.25.51-.5.76-.77s.52-.5.77-.76.51-.5.76-.77.52-.5.77-.76.51-.5.76-.77.52-.5.77-.76.51-.5.76-.77.51-.5.77-.76.51-.5.76-.77.51-.5.77-.76.51-.5.76-.77.33-.32.5-.48a22.8,22.8,0,0,0,4.88-5.21,40,40,0,0,0,3.13-5.31l.35.3a18,18,0,0,0,11.48,3.93h.76a19.34,19.34,0,0,0,11.46-3.67,16.68,16.68,0,0,0,2.3-2c.26-.25.52-.5.76-.77s.52-.5.77-.76.52-.5.76-.77.52-.5.77-.76.51-.5.76-.77.52-.5.76-.76.52-.5.77-.76.52-.51.76-.77.52-.5.77-.76.52-.51.76-.77.52-.5.77-.76l.63-.62a16.2,16.2,0,0,0,6.48-11.06,14.73,14.73,0,0,0,.12-2.22C219.32,43.79,217.29,39.61,215.5,35.91Z"/>
        <g>
          <path class="cls-2" d="M75.84,60.58C73.52,58.9,71.13,57,71.13,49.72A65.51,65.51,0,0,1,72.41,38.3C78.4,32.55,83,25.12,85,18.89a15.16,15.16,0,0,0,.8-4.63c0-4.15-2.23-6.31-4.07-6.71l-.88-.08c-8.46,0-17.33,24-19.72,31.07a7.76,7.76,0,0,1-1.36.08,9,9,0,0,1-2.56-.4A111.23,111.23,0,0,0,60.59,25a9.26,9.26,0,0,0,6.94-9.1A8.41,8.41,0,0,0,62,7.79a7.26,7.26,0,0,0-2.63-.48c-2.4,0-4.87,1.2-6.47,4.31a32.68,32.68,0,0,0-7.19-2.07,25.13,25.13,0,0,0-4.87-.48c-7,0-13.18,2.95-15,10.78a18.41,18.41,0,0,0-.4,3.35,11.49,11.49,0,0,0,4,9,13.5,13.5,0,0,0,8.31,3.19,7.92,7.92,0,0,0,7.9-5.59l.08-.4c0-.63-.4-1.35-1-1.35l-.72.08c-1.91,0-2.71-1.6-2.71-3.2a4.56,4.56,0,0,1,.32-1.76,3.83,3.83,0,0,1,3.83-2.31,12.68,12.68,0,0,1,4,.8c-2.32,10.14-7.35,22.2-15.26,22.2h-.64c-2.07-.24-5.83-1.6-5.83-7.43a14.67,14.67,0,0,1,.32-3.11v-.16a1.41,1.41,0,0,0-1.44-1.28l-.31.08C19.22,34,15.46,40.61,15.46,47.4c0,8.39,5.91,17.09,18.77,17.33h.4c10.22,0,15.73-8.78,19.17-17.25a18.89,18.89,0,0,0,5.11-.8,44.09,44.09,0,0,0-1,8.15c0,3.75.88,7,2.88,9.1a7.51,7.51,0,0,0,5.59,2,16.76,16.76,0,0,0,9.42-3.19,1.4,1.4,0,0,0,.56-1.12A1.17,1.17,0,0,0,75.84,60.58Zm2.56-43h.08c.24,0,.4.16.4.56,0,1-1.44,3.76-3.36,6.71C75.84,23.6,77.44,17.61,78.4,17.53ZM62.66,12.66a.6.6,0,0,1,.08.4,4.26,4.26,0,0,1-.4,1.6l-.08-.32A4.14,4.14,0,0,1,62.66,12.66Z"/>
          <path class="cls-2" d="M173.35,27.92a7.82,7.82,0,0,0-2.79.48,1.36,1.36,0,0,0-.88,1.27l.08.48a8.86,8.86,0,0,1,.4,3.28,47.8,47.8,0,0,1-.8,8.14c-.4,1.76-2.8,8.87-5.67,8.87l-.48-.08a1.92,1.92,0,0,1-1.68-1.92V48c0-3.35,3.91-10.54,3.91-15.65,0-2.64-1.11-4.79-4.47-5.51a9.91,9.91,0,0,0-2.15-.24,10.2,10.2,0,0,0-5.2,1.36,1.32,1.32,0,0,0-.71,1.19l.16.56a1.6,1.6,0,0,1,.16.72c0,2.28-2.41,7.63-3.94,13.29a2.09,2.09,0,0,0-.3.53c-1.19,3-2.79,5.67-4.63,5.67l-.4-.08c-1.52-.32-2.07-1.92-2.07-4.07,0-7,5.75-20.45,6.22-23.48a19.7,19.7,0,0,0,.16-2.08c0-6.23-5-8.15-8.54-8.15-1.68,0-3.12.48-3.51,1a1.29,1.29,0,0,0-.32.8c0,.88.87,1.76.87,3.59a7.05,7.05,0,0,1-.24,1.68c-1.07,4.6-6.15,15.49-8.26,25.17-1.19,2.92-2.78,5.58-4.59,5.58l-.4-.08c-1.52-.32-2.08-1.92-2.08-4.07,0-7,5.75-20.45,6.23-23.48a19.7,19.7,0,0,0,.16-2.08c0-6.23-5-8.15-8.54-8.15-1.68,0-3.12.48-3.52,1a1.29,1.29,0,0,0-.32.8c0,.88.88,1.76.88,3.59a7.05,7.05,0,0,1-.24,1.68c-1,4.26-5.43,13.92-7.75,23a15.9,15.9,0,0,0-2.79-7.37c-2.08-3-6.63-6.3-10.62-6.3A5.79,5.79,0,0,0,91,29.75a2,2,0,0,0-1.91-.95,3.41,3.41,0,0,0-.88.07,18.44,18.44,0,0,0-13.66,16.3l-.08,1.19A15.43,15.43,0,0,0,90.22,61.94a18.3,18.3,0,0,0,16.47-11.12c0,.33,0,.66,0,1,0,5.67,2.15,9.82,8.7,10.3h1c4.91,0,8.67-2.34,11.54-5.79,1,3.26,3.46,5.45,8.11,5.79h1c5,0,8.82-2.43,11.71-6,1.11,2.74,3.52,4.79,8,5.43l.56.08c2.47,0,6.47-2.16,8.86-5.19-.48,3.43-2.87,10.78-6.86,10.78l-.56-.08a11.6,11.6,0,0,1-5.12-2.72,1.48,1.48,0,0,0-1-.4,1.29,1.29,0,0,0-1.12.72,12.06,12.06,0,0,0-1.6,6,11.67,11.67,0,0,0,10.22,11.42l1.28.08c7.67,0,13.34-10.3,16.77-21.56a90.48,90.48,0,0,0,3.68-22.84c0-2.56-.24-4.55-.8-5.51A8.84,8.84,0,0,0,173.35,27.92ZM97.64,41.65a7.62,7.62,0,0,1-7.1,5.51,5.67,5.67,0,0,1-1.12-.08,5.42,5.42,0,0,1-4.56-5.67,7.58,7.58,0,0,1,2-5.19,10.07,10.07,0,0,0-.32,2.16A5.21,5.21,0,0,0,87.82,42a4.25,4.25,0,0,0,3.35,1.52c2.56,0,5.12-1.84,5.12-2.88v-.23c-.16-.32-2.56,0-3.12-1.12a3,3,0,0,1-.32-1.36,2.37,2.37,0,0,1,2.48-2.4c1.35,0,2.71,1,2.71,3.44A8.88,8.88,0,0,1,97.64,41.65Z"/>
          <path class="cls-2" d="M190.36,13.38l-.56,1a1.38,1.38,0,0,0,1.12,2.16l.56-.16c3-1.52,5.75-4.24,5.75-7.75a5.15,5.15,0,1,0-10.3,0A5,5,0,0,0,190.36,13.38Z"/>
          <path class="cls-2" d="M210.89,34.07c-1.12-2.56-2-4.4-2-5.59a1.71,1.71,0,0,1,.24-1,3.93,3.93,0,0,0,.56-1.84c0-1.2-1-1.84-2.32-1.84a5.88,5.88,0,0,0-5.75,5.83c-.32.48-3.11,4.56-3.27,4.56a6.88,6.88,0,0,0-1.28-.08c-6,0-9.74,7.58-9.74,14.21v1c.48,8.62,7.1,12.78,13.89,12.78S214.8,58,215.84,50.28a13,13,0,0,0,.08-1.76C215.92,43.33,212.88,38.7,210.89,34.07Zm-7.27,16.85a3.94,3.94,0,0,1-3.83-4.24v-.16a3.39,3.39,0,0,1,2.87-3.35l.4.08a1.56,1.56,0,0,0,.56.08,1.36,1.36,0,0,0,.56-.08,1.61,1.61,0,0,0,.72-.88,6.18,6.18,0,0,0,.16-1.2,6.46,6.46,0,0,0-2.16-4.47l.8-1.28c3,4.48,4.07,7.91,4.07,10.39C207.77,49.24,205.7,50.92,203.62,50.92Z"/>
        </g>
        <g>
          <path class="cls-1" d="M8.2,96.39H8.1A1.16,1.16,0,0,1,7,95.27V92.88H4v2.39a1.14,1.14,0,0,1-1.11,1.12h-.1a1.17,1.17,0,0,1-1.12-1.12V88.66a1.14,1.14,0,0,1,1.12-1.12h.1A1.12,1.12,0,0,1,4,88.66v1.89H7V88.66A1.14,1.14,0,0,1,8.1,87.54h.1a1.13,1.13,0,0,1,1.12,1.12v6.61A1.12,1.12,0,0,1,8.2,96.39Z"/>
          <path class="cls-1" d="M18.88,96.3H15.56a2.65,2.65,0,0,1-2.77-2.75,2.61,2.61,0,0,1,.63-1.63,2.67,2.67,0,0,1,2.14-4.4h3.32A1.25,1.25,0,0,1,20,88.66a1.23,1.23,0,0,1-1.16,1.21H15.56a.46.46,0,0,0-.45.45.43.43,0,0,0,.45.41h2.73a1.16,1.16,0,0,1,1.22,1.19,1.14,1.14,0,0,1-1.22,1.16H15.56a.48.48,0,0,0-.45.47.45.45,0,0,0,.45.42h3.32A1.21,1.21,0,0,1,20,95.15,1.24,1.24,0,0,1,18.88,96.3Z"/>
          <path class="cls-1" d="M29.11,96.39H29a1.12,1.12,0,0,1-1.12-1.12v-2H25.06v2a1.12,1.12,0,0,1-1.12,1.12h-.09a1.11,1.11,0,0,1-1.12-1.12V90.91c0-1.69.52-3.55,3.75-3.55s3.75,1.86,3.75,3.55v4.36A1.11,1.11,0,0,1,29.11,96.39Zm-2.63-6.82c-1.12,0-1.42.62-1.42,1.33H27.9C27.9,90.19,27.59,89.57,26.48,89.57Z"/>
          <path class="cls-1" d="M39.24,96.3H34.82a1.21,1.21,0,0,1-1.17-1.17V88.66a1.13,1.13,0,0,1,1.12-1.12h.09A1.12,1.12,0,0,1,36,88.66V94h3.26a1.16,1.16,0,1,1,0,2.32Z"/>
          <path class="cls-1" d="M46.81,89.87h-1.4v5.4a1.11,1.11,0,0,1-1.12,1.12H44.2a1.12,1.12,0,0,1-1.12-1.12v-5.4H41.69a1.18,1.18,0,0,1-1.17-1.16,1.21,1.21,0,0,1,1.17-1.17h5.12A1.21,1.21,0,0,1,48,88.71,1.18,1.18,0,0,1,46.81,89.87Z"/>
          <path class="cls-1" d="M57.38,96.39h-.1a1.16,1.16,0,0,1-1.11-1.12V92.88h-3v2.39a1.14,1.14,0,0,1-1.11,1.12H52a1.17,1.17,0,0,1-1.12-1.12V88.66A1.14,1.14,0,0,1,52,87.54h.1a1.12,1.12,0,0,1,1.11,1.12v1.89h3V88.66a1.14,1.14,0,0,1,1.11-1.12h.1a1.13,1.13,0,0,1,1.12,1.12v6.61A1.12,1.12,0,0,1,57.38,96.39Z"/>
          <path class="cls-1" d="M68.7,89.39,66.27,92.7v2.57a1.12,1.12,0,0,1-1.11,1.12h-.09A1.11,1.11,0,0,1,64,95.27V92.7l-2.39-3.34a1,1,0,0,1-.2-.66,1.16,1.16,0,0,1,1.13-1.17,1.21,1.21,0,0,1,.94.48l1.7,2.35L66.81,88a1.16,1.16,0,0,1,.94-.48,1.22,1.22,0,0,1,1.18,1.16A1.17,1.17,0,0,1,68.7,89.39Z"/>
          <path class="cls-1" d="M82.59,96.39h-.1a1.16,1.16,0,0,1-1.11-1.12V92.88h-3v2.39a1.14,1.14,0,0,1-1.11,1.12h-.1A1.17,1.17,0,0,1,76,95.27V88.66a1.14,1.14,0,0,1,1.12-1.12h.1a1.12,1.12,0,0,1,1.11,1.12v1.89h3V88.66a1.14,1.14,0,0,1,1.11-1.12h.1a1.13,1.13,0,0,1,1.12,1.12v6.61A1.12,1.12,0,0,1,82.59,96.39Z"/>
          <path class="cls-1" d="M91.52,96.44a4.53,4.53,0,1,1,4.56-4.52A4.49,4.49,0,0,1,91.52,96.44Zm0-6.73a2.21,2.21,0,1,0,2.22,2.21A2.21,2.21,0,0,0,91.52,89.71Z"/>
          <path class="cls-1" d="M104.86,96.3h-4.42a1.21,1.21,0,0,1-1.17-1.17V88.66a1.13,1.13,0,0,1,1.12-1.12h.09a1.12,1.12,0,0,1,1.12,1.12V94h3.26a1.16,1.16,0,1,1,0,2.32Z"/>
          <path class="cls-1" d="M114.8,96.3h-3.31a2.65,2.65,0,0,1-2.77-2.75,2.56,2.56,0,0,1,.63-1.63,2.62,2.62,0,0,1-.63-1.6,2.68,2.68,0,0,1,2.77-2.8h3.31A1.25,1.25,0,0,1,116,88.66a1.23,1.23,0,0,1-1.17,1.21h-3.31a.46.46,0,0,0-.45.45.43.43,0,0,0,.45.41h2.73a1.16,1.16,0,0,1,1.22,1.19,1.14,1.14,0,0,1-1.22,1.16h-2.73a.48.48,0,0,0-.45.47.45.45,0,0,0,.45.42h3.31A1.21,1.21,0,0,1,116,95.15,1.24,1.24,0,0,1,114.8,96.3Z"/>
          <path class="cls-1" d="M122.56,96.48a5.29,5.29,0,0,1-3.68-1.37,1.22,1.22,0,0,1-.34-.82,1.12,1.12,0,0,1,1.17-1.13,1.17,1.17,0,0,1,.79.31,3.39,3.39,0,0,0,2.14.69c.71,0,1.69-.18,1.69-.62s-1-.56-1.65-.56h-1.09a2.66,2.66,0,0,1-2.8-2.62c0-2,2.12-3,3.74-3,1.88,0,3.45.79,3.45,1.83a1.19,1.19,0,0,1-1.16,1.15,1.06,1.06,0,0,1-.65-.2,2.6,2.6,0,0,0-1.62-.46c-.64,0-1.44.2-1.44.63,0,.14.21.3.61.3h1c2,0,4,.57,4,2.89C126.66,95.51,124.73,96.48,122.56,96.48Z"/>
        </g>
      </g>
    </g>
  </g>
</svg>
