<svg xmlns="http://www.w3.org/2000/svg" width="730" height="619" viewBox="0 0 730 619">
  <defs>
    <style>
      .cls-1 {
        fill: #e9b85a;
      }

      .cls-2 {
        fill: #f4e5a3;
        stroke: #f4e5a3;
        stroke-miterlimit: 10;
        stroke-width: 2px;
      }

      .cls-3 {
        fill: none;
        stroke: #fff;
        stroke-linecap: round;
        stroke-linejoin: round;
        stroke-width: 18px;
      }
    </style>
  </defs>
  <g id="Layer_2" data-name="Layer 2">
    <g id="Layer_1-2" data-name="Layer 1">
      <g>
        <path class="cls-1" d="M365.5,1C164.74,1,2,139.34,2,310S164.74,619,365.5,619,729,480.66,729,310,566.26,1,365.5,1Zm-11,376.5c-89-7-117-38-117-38S276,242,367,244s124.5,91.5,124.5,91.5S443.5,384.5,354.5,377.5Z"/>
        <path class="cls-2" d="M5.08,337c2.29,22.16,8,69.88,39.06,96.69,24.78,21.41,72.82,20.1,111.13,40,30.47,15.87,54.91,59.81,95.93,68.84,33.85,7.45,75-20.41,116.67-20.41,41.44,0,82.24,27.88,115.68,20.46,40.75-9,64.64-53,94.63-68.91,37.85-20.11,84.23-20.89,109.73-41C715.57,411,724.25,358.92,727,330a139.12,139.12,0,0,1,2-19C728.88,140.43,565.18,1,364.5,1S1,139.34,1,310q0,8,.47,15.89a25.38,25.38,0,0,1,2.83,3.84C4.53,331.65,4.78,334.12,5.08,337ZM361.5,162.5c90.57,0,164,48.35,164,108,0,36.07-26.86,68-68.13,87.63-19.37,9.83-47,17.3-82.38,18-4.45.24-8.95.4-13.49.37-80.5-.5-164-46.35-164-106S270.93,162.5,361.5,162.5Z"/>
        <path class="cls-3" d="M124.75,132.05S186.87,56.67,295.25,42"/>
        <line class="cls-3" x1="331" y1="36" x2="363" y2="34"/>
        <path class="cls-3" d="M649,343s59-37,18-119"/>
        <path class="cls-3" d="M30,293s-5,98,60,122"/>
        <path class="cls-3" d="M350,495s26-11,43,1"/>
      </g>
    </g>
  </g>
</svg>
