<svg xmlns="http://www.w3.org/2000/svg" width="498.77" height="447.1" viewBox="0 0 498.77 447.1">
  <defs>
    <style>
      .cls-1 {
        fill: #ffbc00;
      }

      .cls-2 {
        fill: #774d4b;
      }

      .cls-3 {
        fill: #fa9295;
      }
    </style>
  </defs>
  <g id="Layer_2" data-name="Layer 2">
    <g id="Layer_1-2" data-name="Layer 1">
      <g>
        <path class="cls-1" d="M458.13,41.76h0a138.78,138.78,0,0,0-196.25,0l-12.49,12.5-12.5-12.5A138.1,138.1,0,0,0,161.41,3C120.15-6.61,69.71,7.16,37.65,41.76h0C12.55,68.86,0,104.37,0,139.88H0c0,35.52,12.55,71,37.65,98.13L209.17,407.1l39.86,40,.35-.35.36.35L458.13,238A138.78,138.78,0,0,0,458.13,41.76Z"/>
        <g>
          <path class="cls-2" d="M249.16,194a32.69,32.69,0,0,1-32.42-28.49,3.73,3.73,0,0,1,3.71-4.19h0a3.74,3.74,0,0,1,3.71,3.26,25.21,25.21,0,0,0,50,0,3.74,3.74,0,0,1,3.71-3.26h0a3.73,3.73,0,0,1,3.71,4.19A32.69,32.69,0,0,1,249.16,194Z"/>
          <circle class="cls-2" cx="195.58" cy="143.26" r="11.89"/>
          <circle class="cls-2" cx="302.73" cy="143.26" r="11.89"/>
          <circle class="cls-3" cx="140.78" cy="204.3" r="27.93"/>
          <circle class="cls-3" cx="357.99" cy="204.3" r="27.93"/>
        </g>
      </g>
    </g>
  </g>
</svg>
