<svg xmlns="http://www.w3.org/2000/svg" viewBox="0 0 362 236.67"><defs><style>.cls-1{fill:#fa9295;}</style></defs><g id="Layer_2" data-name="Layer 2"><g id="Layer_1-2" data-name="Layer 1"><path class="cls-1" d="M52,0a52,52,0,1,0,52,52A52,52,0,0,0,52,0Zm0,70.4A18.4,18.4,0,1,1,70.4,52,18.4,18.4,0,0,1,52,70.4Z"/><path class="cls-1" d="M181,0a52,52,0,1,0,52,52A52,52,0,0,0,181,0Zm0,70.4A18.4,18.4,0,1,1,199.4,52,18.4,18.4,0,0,1,181,70.4Z"/><path class="cls-1" d="M310,0a52,52,0,1,0,52,52A52,52,0,0,0,310,0Zm0,70.4A18.4,18.4,0,1,1,328.4,52,18.4,18.4,0,0,1,310,70.4Z"/><path class="cls-1" d="M181,132.67a52,52,0,1,0,52,52A52,52,0,0,0,181,132.67Zm0,70.4a18.4,18.4,0,1,1,18.4-18.4A18.4,18.4,0,0,1,181,203.07Z"/><path class="cls-1" d="M310,132.67a52,52,0,1,0,52,52A52,52,0,0,0,310,132.67Zm0,70.4a18.4,18.4,0,1,1,18.4-18.4A18.4,18.4,0,0,1,310,203.07Z"/><path class="cls-1" d="M52,132.67a52,52,0,1,0,52,52A52,52,0,0,0,52,132.67Zm0,70.4a18.4,18.4,0,1,1,18.4-18.4A18.4,18.4,0,0,1,52,203.07Z"/></g></g></svg>