<svg xmlns="http://www.w3.org/2000/svg" xmlns:xlink="http://www.w3.org/1999/xlink" width="144.49" height="147.87" viewBox="0 0 144.49 147.87">
  <defs>
    <style>
      .cls-1 {
        fill: none;
      }

      .cls-2 {
        fill: #774d4b;
      }

      .cls-3, .cls-8 {
        fill: #3f2525;
      }

      .cls-4 {
        clip-path: url(#clip-path);
      }

      .cls-5 {
        fill: #bb6e70;
      }

      .cls-6 {
        fill: #fa9295;
      }

      .cls-7 {
        fill: #78a077;
      }

      .cls-8 {
        opacity: 0.3;
      }

      .cls-9 {
        fill: #f7bac0;
      }
    </style>
    <clipPath id="clip-path">
      <circle class="cls-1" cx="73.53" cy="75.26" r="33.91"/>
    </clipPath>
  </defs>
  <g id="Layer_2" data-name="Layer 2">
    <g id="Layer_1-2" data-name="Layer 1">
      <g>
        <g>
          <path class="cls-2" d="M77.16,36.8a1.4,1.4,0,0,0,1,2c.57.09,1.14.19,1.71.31a39.36,39.36,0,0,1,12.64,5A40.38,40.38,0,0,1,98,48.26c2.46,2.18,6.24,5.34,4.28,9.07.46.86.84,1.6,1.27,2.41.21.38.53.78.72,1.17A9.05,9.05,0,0,0,106,58.22a8.13,8.13,0,0,0-.38-7A21.26,21.26,0,0,0,100.94,46a44.29,44.29,0,0,0-5.51-4.14,43.42,43.42,0,0,0-12.81-5.49,5.2,5.2,0,0,0-.83-.2L82.56,35A1.73,1.73,0,0,0,82,32.58a1.73,1.73,0,0,0-2.34.49L78,35.49l-.82,1.2Z"/>
          <path class="cls-3" d="M102.32,57.41c.19.32,3.49,1.94,4.15-.5a8.94,8.94,0,0,1-2.31,4.25"/>
        </g>
        <g>
          <path class="cls-2" d="M69.71,37.18a1.4,1.4,0,0,1-1,2c-.58.09-1.15.19-1.71.31a39.52,39.52,0,0,0-18.13,9.12c-2.46,2.17-6.23,5.34-4.27,9.07-.47.86-.85,1.6-1.28,2.41-.2.38-.53.78-.71,1.17a8.67,8.67,0,0,1-1.73-2.69,8.1,8.1,0,0,1,.37-7,21.46,21.46,0,0,1,4.72-5.21,44.29,44.29,0,0,1,5.51-4.14,43.16,43.16,0,0,1,12.81-5.49,5.47,5.47,0,0,1,.83-.2l-.77-1.22A1.73,1.73,0,0,1,64.84,33a1.75,1.75,0,0,1,.92-.27,1.71,1.71,0,0,1,1.42.76l1.64,2.42.82,1.2Z"/>
          <path class="cls-3" d="M44.55,57.79c-.2.32-3.5,1.94-4.16-.5a8.94,8.94,0,0,0,2.31,4.25"/>
        </g>
        <g class="cls-4">
          <path class="cls-3" d="M104.67,85.51A2.64,2.64,0,0,1,102,82.87V77a1.57,1.57,0,0,0-3.14,0v2.83a2.48,2.48,0,1,1-5,0V72.63a1.74,1.74,0,0,0-1.74-1.74,1.73,1.73,0,0,0-1.73,1.74v11a4.42,4.42,0,0,1-8.84,0V75.39a8.27,8.27,0,0,1-16.54,0v9.44a4.38,4.38,0,0,1-8.75,0V73.89a.9.9,0,0,0-.26-.63.88.88,0,0,0-.62-.26.89.89,0,0,0-.89.89v3.87a2.46,2.46,0,0,1-4.92,0V72.88a1.19,1.19,0,0,0-.36-.87,1.21,1.21,0,0,0-.86-.36,1.23,1.23,0,0,0-1.23,1.23v8.61a4,4,0,0,1-4,4h-.09a4,4,0,0,1-2.84-1.18,34.3,34.3,0,0,0,66.05.62A2.61,2.61,0,0,1,104.67,85.51Z"/>
          <path class="cls-2" d="M104.58,85.19a2.64,2.64,0,0,1-2.64-2.64V76.64a1.55,1.55,0,0,0-1.57-1.56,1.56,1.56,0,0,0-1.57,1.56v2.83a2.49,2.49,0,1,1-5,0V72.31a1.74,1.74,0,0,0-1.73-1.73,1.73,1.73,0,0,0-1.74,1.73v11a4.42,4.42,0,0,1-8.83,0V75.08a8.27,8.27,0,1,1-16.54,0v9.43a4.38,4.38,0,0,1-8.75,0V73.58a.89.89,0,0,0-1.78,0v3.86a2.46,2.46,0,1,1-4.91,0V72.56a1.23,1.23,0,1,0-2.45,0v8.61a4,4,0,0,1-4,4H43A4,4,0,0,1,40.15,84a34.3,34.3,0,0,0,66.05.61A2.63,2.63,0,0,1,104.58,85.19Z"/>
          <path class="cls-3" d="M42.87,85.19A4,4,0,0,1,40.11,84a34.29,34.29,0,0,0,33.11,25.34,35,35,0,0,0,5.82-.49,33.7,33.7,0,0,1-3.49.18A34.32,34.32,0,0,1,42.87,85.19Z"/>
          <path class="cls-5" d="M107.57,78a36.26,36.26,0,0,1-.33,4.91,35.09,35.09,0,0,1-1,4.83,2.56,2.56,0,0,1-1.62.57A2.67,2.67,0,0,1,102,85.63v-6a1.57,1.57,0,1,0-3.14,0v2.88A2.51,2.51,0,0,1,96.34,85a2.45,2.45,0,0,1-1.76-.74,2.54,2.54,0,0,1-.72-1.79v-7.3a1.79,1.79,0,0,0-.51-1.25,1.73,1.73,0,0,0-3,1.25V86.42a4.42,4.42,0,1,1-8.83,0V78A8.27,8.27,0,1,0,65,78v9.61a4.38,4.38,0,1,1-8.75,0V76.48a.88.88,0,0,0-.27-.64.85.85,0,0,0-.62-.27.9.9,0,0,0-.89.91v3.94a2.46,2.46,0,1,1-4.92,0v-5a1.27,1.27,0,0,0-.35-.88,1.22,1.22,0,0,0-.87-.37,1.24,1.24,0,0,0-1.23,1.25v8.78a4.06,4.06,0,0,1-4,4.1H43a4,4,0,0,1-2.85-1.2A36,36,0,0,1,39,78a35.28,35.28,0,0,1,4-16.38,34.2,34.2,0,0,1,30.3-18.57C92.22,43.06,107.57,58.71,107.57,78Z"/>
          <path class="cls-6" d="M107.55,75.08a33.21,33.21,0,0,1-.34,4.81,32.45,32.45,0,0,1-1,4.74,2.64,2.64,0,0,1-4.26-2.08V76.64a1.55,1.55,0,0,0-1.57-1.56,1.56,1.56,0,0,0-1.57,1.56v2.83a2.49,2.49,0,1,1-5,0V72.31a1.74,1.74,0,0,0-1.73-1.73,1.73,1.73,0,0,0-1.74,1.73v11a4.42,4.42,0,0,1-8.83,0V75.08a8.27,8.27,0,1,0-16.54,0v9.43a4.38,4.38,0,0,1-8.75,0V73.58a.89.89,0,0,0-1.78,0v3.86a2.46,2.46,0,1,1-4.91,0V72.56a1.23,1.23,0,1,0-2.45,0v8.61a4,4,0,0,1-4,4H43A4,4,0,0,1,40.15,84a34.29,34.29,0,1,1,67.4-8.94Z"/>
        </g>
        <g>
          <path class="cls-7" d="M4.84,83.54,4.54,80l-2.83.25A1.56,1.56,0,0,1,0,78.83v-.12A1.61,1.61,0,0,1,1.43,77l9.13-.79a1.7,1.7,0,0,1,1.78,1.5l.45,5.13a3.66,3.66,0,0,1-3.65,4.2A3.65,3.65,0,0,1,4.84,83.54Zm4.7-.41L9.23,79.6l-1.46.13.3,3.53c0,.53.43.59.79.56S9.59,83.66,9.54,83.13Z"/>
          <path class="cls-7" d="M10,101.7,8,103.64a1.72,1.72,0,0,1-.63.41,1.66,1.66,0,0,1-1.69-2.74l2.71-2.72-.76-2.14L5,97.39a1.56,1.56,0,0,1-2-1l0-.12a1.62,1.62,0,0,1,1-2l8.63-3.06a1.7,1.7,0,0,1,2.1,1l1.75,4.92a3.84,3.84,0,0,1-2.4,5.18A3.7,3.7,0,0,1,10,101.7Zm3.37-3.43-1.21-3.4-1.39.49,1.21,3.4a.72.72,0,0,0,1,.53A.74.74,0,0,0,13.32,98.27Z"/>
          <path class="cls-7" d="M12.65,116.55a6.34,6.34,0,1,1,10.45-7.17,6.34,6.34,0,1,1-10.45,7.17Zm7.76-5.32a3.09,3.09,0,1,0-.79,4.3A3.07,3.07,0,0,0,20.41,111.23Z"/>
          <path class="cls-7" d="M32.94,125.13l-1.46-1.31-5,5.64a1.54,1.54,0,0,1-2.21.13l-.1-.08a1.58,1.58,0,0,1-.13-2.22l5-5.63-1.45-1.3a1.63,1.63,0,0,1-.15-2.28,1.69,1.69,0,0,1,2.31-.15l5.35,4.76a1.71,1.71,0,0,1,.12,2.32A1.65,1.65,0,0,1,32.94,125.13Z"/>
          <path class="cls-7" d="M41.18,140.77l-4.08-2.2a3.69,3.69,0,0,1-1.59-5.21,3.63,3.63,0,0,1,1.86-1.6,3.65,3.65,0,0,1,.29-2.39,3.76,3.76,0,0,1,5.26-1.61L47,130a1.75,1.75,0,0,1,.68,2.18,1.73,1.73,0,0,1-2.24.71l-4.08-2.19a.63.63,0,0,0-.85.25.61.61,0,0,0,.28.81l3.36,1.81a1.64,1.64,0,0,1,.72,2.27,1.61,1.61,0,0,1-2.28.63l-3.36-1.82a.67.67,0,0,0-.87.29.61.61,0,0,0,.28.8l4.08,2.2a1.7,1.7,0,0,1,.65,2.24A1.72,1.72,0,0,1,41.18,140.77Z"/>
          <path class="cls-7" d="M51,144.62l-.12,0a1.6,1.6,0,0,1-1-2l2.72-8.84a1.58,1.58,0,0,1,2-1l.12,0a1.58,1.58,0,0,1,1,2L53,143.58A1.58,1.58,0,0,1,51,144.62Z"/>
          <path class="cls-7" d="M69.53,147.86l-.25,0a1.68,1.68,0,0,1-1.21-.72c-1.44-2.18-2.58-4-3.88-6.13l-.43,4.78a1.59,1.59,0,0,1-1.7,1.42h-.13a1.63,1.63,0,0,1-1.42-1.7l.83-9.12a1.66,1.66,0,0,1,1.78-1.49l.36,0a1.67,1.67,0,0,1,1.22.74c1.29,2,2.56,3.94,3.78,5.89L68.9,137a1.6,1.6,0,0,1,1.7-1.42h.12a1.56,1.56,0,0,1,1.42,1.7l-.83,9.16A1.64,1.64,0,0,1,69.53,147.86Z"/>
          <path class="cls-7" d="M92.7,144.7l-3.8,1.13a1.69,1.69,0,0,1-2-1.12l-2.55-8.59a1.68,1.68,0,0,1,1.1-2L89.21,133c4-1.19,6.66,1.67,7.44,4.29A5.86,5.86,0,0,1,92.7,144.7Zm-2.56-8.62-2.24.66,1.64,5.5,2.23-.67a2.66,2.66,0,0,0,1.76-3.39A2.78,2.78,0,0,0,90.14,136.08Z"/>
          <path class="cls-7" d="M110.74,136.73a6.34,6.34,0,1,1,2-8.75A6.27,6.27,0,0,1,110.74,136.73Zm-5-8a3.09,3.09,0,1,0,4.26.95A3.07,3.07,0,0,0,105.72,128.77Z"/>
          <path class="cls-7" d="M128.31,121.18l-.17.19a1.67,1.67,0,0,1-1.3.53c-2.61-.16-4.72-.32-7.23-.58l3.56,3.22a1.59,1.59,0,0,1,.11,2.21l-.08.09A1.62,1.62,0,0,1,121,127l-6.79-6.13a1.65,1.65,0,0,1-.11-2.32l.24-.27a1.68,1.68,0,0,1,1.32-.53c2.36.17,4.69.33,7,.52l-3.41-3.09a1.6,1.6,0,0,1-.12-2.21l.09-.09a1.56,1.56,0,0,1,2.21-.11l6.82,6.16A1.65,1.65,0,0,1,128.31,121.18Z"/>
          <path class="cls-7" d="M136.62,108.42c-2,4-4.77,3.63-6.88,2.55l-5.31-2.69a1.66,1.66,0,0,1-.68-2.11l.06-.12a1.65,1.65,0,0,1,2.1-.68l5.31,2.7c.89.45,1.75.38,2.51-1.11s.31-2.24-.58-2.69l-5.31-2.7a1.64,1.64,0,0,1-.7-2.09l.07-.12a1.65,1.65,0,0,1,2.1-.69l5.31,2.69C136.73,102.43,138.66,104.41,136.62,108.42Z"/>
          <path class="cls-7" d="M134.39,86.54l-.45,1.91,7.35,1.73a1.53,1.53,0,0,1,1.17,1.88l0,.12a1.57,1.57,0,0,1-1.89,1.17l-7.35-1.73-.44,1.89a1.65,1.65,0,0,1-1.94,1.22,1.7,1.7,0,0,1-1.23-2l1.64-7a1.68,1.68,0,0,1,2-1.21A1.64,1.64,0,0,1,134.39,86.54Z"/>
          <path class="cls-7" d="M144.49,75.51a7.36,7.36,0,0,1-1.9,5.16,1.68,1.68,0,0,1-1.14.47,1.56,1.56,0,0,1-1.59-1.62,1.65,1.65,0,0,1,.44-1.11,4.9,4.9,0,0,0,.95-3c0-1-.26-2.36-.87-2.36-.78,0-.78,1.38-.78,2.32v1.52A3.72,3.72,0,0,1,136,80.81c-2.78,0-4.13-3-4.13-5.22,0-2.64,1.08-4.83,2.54-4.83A1.67,1.67,0,0,1,136,72.38a1.57,1.57,0,0,1-.28.91,3.57,3.57,0,0,0-.64,2.26c0,.89.29,2,.88,2,.19,0,.42-.3.42-.86V75.36c0-2.87.79-5.56,4-5.57C143.13,69.78,144.48,72.49,144.49,75.51Z"/>
        </g>
        <g>
          <path class="cls-7" d="M13.36,52.72A6.33,6.33,0,1,1,1.55,48.18c1-2.72,3.49-3.9,4.33-3.58a1.69,1.69,0,0,1,1,2.11,1.53,1.53,0,0,1-.85.88H6a2.72,2.72,0,0,0-1.34,1.6,3.14,3.14,0,0,0,1.72,4.28,3.1,3.1,0,0,0,4-2c.45-1.17.4-2.15,0-2.29l-.27-.1-.56,1.48a1.69,1.69,0,0,1-2.1.94,1.66,1.66,0,0,1-.93-2.1l1.14-3a1.65,1.65,0,0,1,2.09-1l1.86.71C13.85,47,14.46,49.85,13.36,52.72Z"/>
          <path class="cls-7" d="M22.3,36.43,18.78,41.5a1.71,1.71,0,0,1-2.28.42L9.07,36.75a1.6,1.6,0,0,1-.4-2.19l.08-.1a1.56,1.56,0,0,1,2.18-.39L17,38.32l2.61-3.74a1.62,1.62,0,1,1,2.66,1.85Z"/>
          <path class="cls-7" d="M30.62,28.15c-3.38,3-5.78,1.58-7.34-.2l-3.92-4.47a1.67,1.67,0,0,1,.15-2.22l.1-.09a1.66,1.66,0,0,1,2.2.16l3.92,4.48c.66.75,1.49,1,2.75-.1s1.12-2,.46-2.71L25,18.52a1.64,1.64,0,0,1,.13-2.2l.11-.09a1.66,1.66,0,0,1,2.21.14l3.92,4.48C33,22.63,34,25.19,30.62,28.15Z"/>
          <path class="cls-7" d="M42.06,9.76l-1.74.9,3.48,6.71a1.55,1.55,0,0,1-.67,2.11l-.11.06a1.58,1.58,0,0,1-2.12-.67l-3.47-6.71-1.73.89a1.63,1.63,0,0,1-2.18-.68,1.69,1.69,0,0,1,.69-2.21l6.35-3.29a1.69,1.69,0,0,1,2.21.71A1.64,1.64,0,0,1,42.06,9.76Z"/>
          <path class="cls-7" d="M60.27,13.3l-4.49,1.13a3.69,3.69,0,0,1-4.69-2.77,3.64,3.64,0,0,1,.29-2.44,3.7,3.7,0,0,1-1.4-2,3.77,3.77,0,0,1,2.8-4.75l4.49-1.13a1.76,1.76,0,0,1,2,1.15,1.72,1.72,0,0,1-1.16,2l-4.5,1.13a.64.64,0,0,0-.45.76.6.6,0,0,0,.74.41L57.58,6a1.63,1.63,0,0,1,2.06,1.19,1.6,1.6,0,0,1-1.26,2l-3.7.93a.67.67,0,0,0-.45.79.62.62,0,0,0,.75.41l4.5-1.13a1.69,1.69,0,0,1,2,1.21A1.72,1.72,0,0,1,60.27,13.3Z"/>
          <path class="cls-7" d="M76.5,12.42h-.25A1.66,1.66,0,0,1,75,11.79c-1.62-2-2.9-3.73-4.38-5.78l0,4.79A1.59,1.59,0,0,1,69,12.36h-.13a1.61,1.61,0,0,1-1.55-1.58l.07-9.15A1.65,1.65,0,0,1,69,0h.36a1.7,1.7,0,0,1,1.28.64c1.45,1.87,2.88,3.72,4.26,5.56l0-4.6A1.6,1.6,0,0,1,76.55,0h.12a1.57,1.57,0,0,1,1.56,1.58l-.07,9.19A1.66,1.66,0,0,1,76.5,12.42Z"/>
          <path class="cls-7" d="M101.85,9.44,97.53,7.78a.59.59,0,1,0-.43,1.09L100,10a1.65,1.65,0,1,1-1.18,3.07l-2.88-1.11a.6.6,0,0,0-.79.31l-.93,2.41a1.59,1.59,0,0,1-2,.9l-.11,0a1.61,1.61,0,0,1-.9-2l.93-2.41a3.39,3.39,0,0,1,1.61-1.75,3.52,3.52,0,0,1,0-2.4,3.69,3.69,0,0,1,5-2.19L103,6.4a1.71,1.71,0,0,1,1,2A1.71,1.71,0,0,1,101.85,9.44Z"/>
          <path class="cls-7" d="M114.55,22.24l-.44,2.68a1.64,1.64,0,0,1-3.24-.56l.63-3.79-1.85-1.3L108,21.58a1.56,1.56,0,0,1-2.18.38l-.1-.07a1.62,1.62,0,0,1-.38-2.18l5.27-7.49a1.71,1.71,0,0,1,2.3-.4l4.26,3a3.85,3.85,0,0,1,1,5.62A3.74,3.74,0,0,1,114.55,22.24Zm.76-4.76-3-2.07-.85,1.2,2.95,2.08a.72.72,0,0,0,1.1-.13A.75.75,0,0,0,115.31,17.48Z"/>
          <path class="cls-7" d="M122.79,37.29l-3-3.53a3.7,3.7,0,0,1,.41-5.43,3.65,3.65,0,0,1,2.31-.82,3.75,3.75,0,0,1,6.63-1.71l3,3.53a1.75,1.75,0,0,1-.16,2.28,1.72,1.72,0,0,1-2.34-.15l-3-3.53a.63.63,0,0,0-.88-.07.61.61,0,0,0,0,.86l2.47,2.91A1.63,1.63,0,0,1,128,34a1.6,1.6,0,0,1-2.35-.24l-2.48-2.91a.67.67,0,0,0-.91-.05.61.61,0,0,0,0,.85l3,3.53a1.69,1.69,0,0,1-.2,2.32A1.73,1.73,0,0,1,122.79,37.29Z"/>
          <path class="cls-7" d="M130.46,50.47l-2.07-4.15a3.69,3.69,0,0,1,1.7-5.18,3.63,3.63,0,0,1,2.43-.24,3.75,3.75,0,0,1,6.85-.08L141.44,45a1.64,1.64,0,0,1-2.94,1.47l-2.07-4.15a.65.65,0,0,0-.85-.28.61.61,0,0,0-.23.82l1.71,3.42a1.63,1.63,0,0,1-.72,2.27,1.59,1.59,0,0,1-2.22-.8l-1.71-3.41a.66.66,0,0,0-.87-.27.63.63,0,0,0-.24.82L133.38,49a1.69,1.69,0,0,1-.76,2.2A1.73,1.73,0,0,1,130.46,50.47Z"/>
        </g>
        <ellipse class="cls-8" cx="73.27" cy="116.73" rx="25.11" ry="2.59"/>
        <path class="cls-2" d="M69.45,109.05v5.09h-2a1.3,1.3,0,1,0,0,2.59h5v-7.68Z"/>
        <path class="cls-2" d="M77.09,109.05v5.09h2a1.3,1.3,0,1,1,0,2.59h-5v-7.68Z"/>
        <path class="cls-6" d="M77.86,28.65h0a2.89,2.89,0,0,0-4.07,0l-.26.26-.26-.26a2.89,2.89,0,0,0-4.07,0h0a2.89,2.89,0,0,0,0,4.07l4.32,4.34h0l4.32-4.34A2.87,2.87,0,0,0,77.86,28.65Z"/>
        <path class="cls-3" d="M72.44,109.13s-3,.53-3,2v-2.31Z"/>
        <path class="cls-3" d="M74.09,108.86l3,.13v.06s-3,.67-3,2.13"/>
        <path class="cls-5" d="M70,32.43a3.07,3.07,0,0,1,.24-3.78h0a3,3,0,0,1,1.44-.8,2.75,2.75,0,0,0-2.57.8h0a3,3,0,0,0,0,4.07l4.4,4.34h0l-2.85-3.7Z"/>
        <g>
          <path class="cls-2" d="M73.27,58a3.7,3.7,0,0,1-2.65-1.1,3.65,3.65,0,0,1-1.07-2.17.43.43,0,0,1,.42-.48h0a.43.43,0,0,1,.43.38,2.9,2.9,0,0,0,5.74,0,.42.42,0,0,1,.42-.38h0a.43.43,0,0,1,.43.48,3.77,3.77,0,0,1-1.07,2.17A3.72,3.72,0,0,1,73.27,58Z"/>
          <circle class="cls-2" cx="67.12" cy="52.15" r="1.36"/>
          <circle class="cls-2" cx="79.41" cy="52.15" r="1.36"/>
          <circle class="cls-9" cx="60.83" cy="59.16" r="3.2"/>
          <circle class="cls-9" cx="85.75" cy="59.16" r="3.2"/>
        </g>
      </g>
    </g>
  </g>
</svg>
