<svg xmlns="http://www.w3.org/2000/svg" width="731" height="619.5" viewBox="0 0 731 619.5">
  <defs>
    <style>
      .cls-1 {
        fill: #71504c;
      }

      .cls-2 {
        fill: #aa8a6a;
        stroke: #aa8a6a;
        stroke-miterlimit: 10;
        stroke-width: 3px;
      }

      .cls-3 {
        fill: none;
        stroke: #fff;
        stroke-linecap: round;
        stroke-linejoin: round;
        stroke-width: 18px;
        opacity: 0.3;
      }

      .cls-4 {
        fill: #e9b85a;
      }
    </style>
  </defs>
  <g id="Layer_2" data-name="Layer 2">
    <g id="Layer_1-2" data-name="Layer 1">
      <g>
        <path class="cls-1" d="M1.5,310.5c0,170.66,162.74,309,363.5,309s363.5-138.34,363.5-309S565.76,1.5,365,1.5,1.5,139.84,1.5,310.5ZM239,336s33.5-89.5,124.5-91.5S493,340,493,340s-28,31-117,38S239,336,239,336Z"/>
        <path class="cls-2" d="M726.2,330.23a25.38,25.38,0,0,1,2.83-3.84q.47-7.89.47-15.89c0-170.66-162.74-309-363.5-309S1.62,140.93,1.5,311.5a139.12,139.12,0,0,1,2,19c2.75,28.92,11.43,81,39.09,102.79,25.5,20.07,71.88,20.85,109.73,41,30,15.95,53.88,59.87,94.63,68.91,33.44,7.42,74.24-20.46,115.68-20.46,41.7,0,82.82,27.86,116.67,20.41,41-9,65.46-53,95.93-68.84,38.31-19.95,86.35-18.64,111.13-40,31-26.81,36.77-74.53,39.06-96.69C725.72,334.62,726,332.15,726.2,330.23ZM533,271c0,59.65-83.5,105.5-164,106-4.54,0-9-.13-13.49-.37-35.36-.7-63-8.17-82.38-18C231.86,339,205,307.07,205,271c0-59.65,73.43-108,164-108S533,211.35,533,271Z"/>
        <path class="cls-3" d="M677.5,400.5s30,1,28-62"/>
        <path class="cls-3" d="M520.93,69.81S536.5,72.5,551.5,87.5"/>
        <path class="cls-3" d="M522.5,194.5s56,39,34,90"/>
        <g>
          <path class="cls-4" d="M385.91,212.18Z"/>
          <path class="cls-4" d="M389.2,366.93c.68-.88.5-.64.09-.11S388.38,368,389.2,366.93Z"/>
          <path class="cls-4" d="M294.71,551.42c-.41.54-.35.45-.07.1C295,551,295.35,550.6,294.71,551.42Z"/>
          <path class="cls-4" d="M681.54,355.92Z"/>
          <path class="cls-4" d="M159.07,152q8.09-10.65,16.24-21.26l4.07-5.28-.2.26c.24-.32,1.6-2.08.21-.28v0c.51-.67,1-1.34,1.55-2q4.38-5.65,8.77-11.29,16.06-20.58,32.37-41,23.64-29.55,47.79-58.69A401.18,401.18,0,0,0,199.38,36q-33,41.07-65,82.91C91.15,175.39,49.41,233.05,9.7,292.1q-4.06,6-8.09,12.09-.11,3.65-.11,7.31a139.12,139.12,0,0,1,2,19,310.17,310.17,0,0,0,5.41,35.6Q51,300.35,96.57,236.85,127.2,194,159.07,152Z"/>
          <path class="cls-4" d="M179.18,125.71l.2-.26v0C180.78,123.63,179.42,125.39,179.18,125.71Z"/>
          <path class="cls-4" d="M242.41,169.77c10.61,5.61,20.5,1.7,27.36-7.18C310.05,110.42,346,55.07,384.86,1.91Q375.5,1.51,366,1.5q-15.54,0-30.76,1.11c-33.26,46.65-65,94.42-100,139.8C228.81,150.72,233.69,165.17,242.41,169.77Z"/>
          <path class="cls-4" d="M205.06,273.54c0-.85-.06-1.69-.06-2.54,0-16.34,5.52-31.84,15.39-45.72a17.21,17.21,0,0,0-5.8-5.05c-9.8-5.18-21.45-2.32-27.36,7.18C146.24,293.27,97.66,354,52.51,417q-5.52,7.69-11,15.44c.35.29.69.59,1,.87,9.49,7.46,21.87,12.26,35.62,16.37,35.64-50.36,73.52-99.14,108.86-149.74Q196.21,286.83,205.06,273.54Z"/>
          <path class="cls-4" d="M273.13,358.63a156.27,156.27,0,0,1-32.57-20.49q-20.55,27.6-40.94,55.34-28.05,38.2-55.76,76.66c2.86,1.28,5.68,2.64,8.46,4.11,8.4,4.47,16.32,11.13,24.26,18.6q48.39-67.19,97.83-133.6Z"/>
          <path class="cls-4" d="M486.06,21.07q-56.74,70.52-112.27,142A241.67,241.67,0,0,1,420,168.33q6.33-8.12,12.68-16.21,40.51-51.63,81.66-102.76c4.3-5.34,6.64-12.48,5.32-19q-15.55-6.16-31.88-11.11A15.46,15.46,0,0,0,486.06,21.07Z"/>
          <path class="cls-4" d="M500.4,202.79l.54-.7Z"/>
          <path class="cls-4" d="M500.4,202.79l.54-.7-.54.7c.28-.35,3-3.89,3.33-4.29q7.72-9.93,15.56-19.76,16.28-20.42,33-40.47c6.7-8,8.45-20.53,0-28.28-7.39-6.79-21.12-8.58-28.28,0q-30.17,36.17-58.85,73.52a154.52,154.52,0,0,1,33.58,21.43Z"/>
          <path class="cls-4" d="M350.67,480.13c23.94-30.24,47.92-60.46,71.51-91q9.35-12.09,18.58-24.27a232.2,232.2,0,0,1-59,11.67l-4.46,5.73q-8.58,11-17.21,22c-23.7,30.08-47.58,60-71.21,90.15q-19.31,24.6-38.32,49.44c17.73,2.61,37.4-3.78,58-10.21,2.06-2.63,4.09-5.26,6.15-7.89Q332.63,502.87,350.67,480.13Z"/>
          <path class="cls-4" d="M481,476.39l3.81-4.95-.31.4c.16-.2,2-2.54.58-.74l-.27.34,2.76-3.55q8.19-10.56,16.46-21.05,16.34-20.76,32.91-41.33c46.55-57.9,93.89-115.15,139.74-173.6q13.79-17.57,27.38-35.25A289.88,289.88,0,0,0,682.86,159c-3.79,5-7.56,9.95-11.37,14.91L667.56,179l-.66.85.66-.85-2.68,3.46q-4.83,6.24-9.69,12.46-35.1,45-71.09,89.17C538.05,341,491.55,397.5,446.94,455.53q-27.12,35.3-53,71.46c13.86,3.39,27.46,8.14,40.54,11.82q19.11-26.5,38.93-52.48Q477.17,481.35,481,476.39Z"/>
          <path class="cls-4" d="M667.56,179l-.66.85Z"/>
          <path class="cls-4" d="M484.47,471.84l.31-.4.27-.34C486.43,469.3,484.63,471.64,484.47,471.84Z"/>
          <path class="cls-4" d="M726.2,330.23a25.38,25.38,0,0,1,2.83-3.84q.47-7.89.47-15.89,0-8.94-.6-17.77Q711,317.27,692.66,341.42q-4,5.26-8.06,10.53l-2.31,3c-.11.13-.37.47-.62.79l.27-.34-.4.51h0l.13-.17c-1.46,1.88-2.92,3.77-4.38,5.64q-8.73,11.22-17.58,22.35-18,22.62-36.41,44.88-16.24,19.61-32.84,38.91c22.9-8.65,47.56-12.26,67.94-18.91q31.59-38.42,61.86-77.91a271.58,271.58,0,0,0,5.16-33.18C725.72,334.62,726,332.15,726.2,330.23Z"/>
          <path class="cls-4" d="M681.94,355.41l-.27.34-.13.17Z"/>
          <path class="cls-4" d="M594.8,150.71c7.5,6.88,21,8.46,28.28,0q13.89-16.1,27.77-32.18a334.18,334.18,0,0,0-29-27.49L594.8,122.42C588,130.34,586.44,143,594.8,150.71Z"/>
        </g>
        <path class="cls-3" d="M361.16,37.59s-97.36-7.8-183.32,59.82"/>
        <path class="cls-3" d="M176.5,261.5s-19,46,28,81"/>
        <path class="cls-3" d="M342.5,495.5s26-11,43,1"/>
      </g>
    </g>
  </g>
</svg>
