<svg xmlns="http://www.w3.org/2000/svg" width="401.93" height="496" viewBox="0 0 401.93 496">
  <defs>
    <style>
      .cls-1 {
        fill: #fa9295;
      }

      .cls-2 {
        fill: #f9cbcc;
      }

      .cls-3 {
        fill: #774d4b;
      }
    </style>
  </defs>
  <g id="Layer_2" data-name="Layer 2">
    <g id="Layer_1-2" data-name="Layer 1">
      <g>
        <rect class="cls-1" x="63.19" y="451.16" width="191.6" height="44.84" rx="5.39"/>
        <path class="cls-2" d="M384.57,225.2H313.9v-37A12.29,12.29,0,0,0,301.64,176H12.26A12.3,12.3,0,0,0,0,188.24V461.32a12.3,12.3,0,0,0,12.26,12.26H301.64a12.29,12.29,0,0,0,12.26-12.26V427.08h70.67a17.37,17.37,0,0,0,17.36-17.37V242.57A17.37,17.37,0,0,0,384.57,225.2ZM367.2,392.34H313.9V259.93h53.3Z"/>
        <g>
          <path class="cls-3" d="M156.58,301.47a24.42,24.42,0,0,1-24.19-21.26,2.79,2.79,0,0,1,2.77-3.13h0a2.8,2.8,0,0,1,2.77,2.43,18.81,18.81,0,0,0,37.31,0,2.79,2.79,0,0,1,2.77-2.43h0a2.79,2.79,0,0,1,2.77,3.13,24.42,24.42,0,0,1-24.2,21.26Z"/>
          <circle class="cls-3" cx="116.6" cy="263.61" r="8.87"/>
          <circle class="cls-3" cx="196.57" cy="263.61" r="8.87"/>
          <circle class="cls-1" cx="75.7" cy="309.17" r="20.84"/>
          <circle class="cls-1" cx="237.81" cy="309.17" r="20.84"/>
        </g>
        <g>
          <path class="cls-3" d="M106,120.94H98.45c0-9.29,5.56-14.11,10-18,4.14-3.59,7.41-6.42,7.41-12.25s-3.27-8.67-7.41-12.25c-4.47-3.88-10-8.7-10-18s5.56-14.11,10-18c4.14-3.59,7.41-6.43,7.41-12.26s-3.27-8.67-7.41-12.26c-4.47-3.87-10-8.69-10-18H106c0,5.83,3.27,8.67,7.41,12.26,4.47,3.87,10,8.69,10,18s-5.55,14.11-10,18C109.3,51.81,106,54.65,106,60.48s3.27,8.66,7.41,12.25c4.46,3.87,10,8.69,10,18s-5.55,14.1-10,18C109.3,112.28,106,115.11,106,120.94Z"/>
          <path class="cls-3" d="M159,120.94h-7.58c0-9.29,5.56-14.11,10-18,4.14-3.59,7.41-6.42,7.41-12.25s-3.27-8.67-7.42-12.25c-4.46-3.88-10-8.7-10-18s5.56-14.11,10-18c4.14-3.59,7.41-6.43,7.41-12.26s-3.27-8.67-7.41-12.26c-4.47-3.87-10-8.69-10-18H159c0,5.83,3.27,8.67,7.41,12.26,4.47,3.87,10,8.69,10,18s-5.55,14.11-10,18c-4.14,3.59-7.41,6.43-7.41,12.26s3.27,8.66,7.41,12.25c4.46,3.87,10,8.69,10,18s-5.55,14.1-10,18C162.31,112.28,159,115.11,159,120.94Z"/>
          <path class="cls-3" d="M211.25,120.94h-7.57c0-9.29,5.55-14.11,10-18,4.14-3.59,7.41-6.42,7.41-12.25S217.84,82,213.7,78.46c-4.47-3.88-10-8.7-10-18s5.55-14.11,10-18c4.14-3.59,7.41-6.43,7.41-12.26S217.84,21.57,213.7,18c-4.47-3.87-10-8.69-10-18h7.57c0,5.83,3.27,8.67,7.41,12.26,4.47,3.87,10,8.69,10,18s-5.55,14.11-10,18c-4.14,3.59-7.41,6.43-7.41,12.26s3.27,8.66,7.41,12.25c4.47,3.87,10,8.69,10,18s-5.55,14.1-10,18C214.52,112.28,211.25,115.11,211.25,120.94Z"/>
        </g>
      </g>
    </g>
  </g>
</svg>
