<svg xmlns="http://www.w3.org/2000/svg" width="730" height="619" viewBox="0 0 730 619">
  <defs>
    <style>
      .cls-1 {
        fill: #513937;
      }

      .cls-2 {
        fill: #71504c;
        stroke: #71504c;
        stroke-miterlimit: 10;
        stroke-width: 2px;
      }

      .cls-3 {
        fill: none;
        stroke: #fff;
        stroke-linecap: round;
        stroke-linejoin: round;
        stroke-width: 18px;
        opacity: 0.36;
      }
    </style>
  </defs>
  <g id="Layer_2" data-name="Layer 2">
    <g id="Layer_1-2" data-name="Layer 1">
      <g>
        <path class="cls-1" d="M1,310C1,480.66,163.74,619,364.5,619S728,480.66,728,310,565.26,1,364.5,1,1,139.34,1,310Zm237.5,25.5S272,246,363,244s129.5,95.5,129.5,95.5-28,31-117,38S238.5,335.5,238.5,335.5Z"/>
        <path class="cls-2" d="M725.7,329.73a25.38,25.38,0,0,1,2.83-3.84Q729,318,729,310C729,139.34,566.26,1,365.5,1S1.12,140.43,1,311a139.12,139.12,0,0,1,2,19c2.75,28.92,11.43,81,39.09,102.79,25.5,20.07,71.88,20.85,109.73,41,30,15.95,53.88,59.87,94.63,68.91,33.44,7.42,74.24-20.46,115.68-20.46,41.7,0,82.82,27.86,116.67,20.41,41-9,65.46-53,95.93-68.84,38.31-19.95,86.35-18.64,111.13-40,31-26.81,36.77-74.53,39.06-96.69C725.22,334.12,725.47,331.65,725.7,329.73ZM532.5,270.5c0,59.65-83.5,105.5-164,106-4.54,0-9-.13-13.49-.37-35.36-.7-63-8.17-82.38-18-41.27-19.62-68.13-51.56-68.13-87.63,0-59.65,73.43-108,164-108S532.5,210.85,532.5,270.5Z"/>
        <path class="cls-3" d="M636.66,153.82S581.86,73,475.34,48.18"/>
        <line class="cls-3" x1="94.72" y1="159.55" x2="77.28" y2="186.45"/>
        <path class="cls-3" d="M81,343S22,306,63,224"/>
        <path class="cls-3" d="M700,293s5,98-60,122"/>
      </g>
    </g>
  </g>
</svg>
