<?xml version="1.0" encoding="utf-8"?>
<!-- Generator: Adobe Illustrator 24.3.0, SVG Export Plug-In . SVG Version: 6.00 Build 0)  -->
<svg version="1.1" id="Layer_1" xmlns="http://www.w3.org/2000/svg" xmlns:xlink="http://www.w3.org/1999/xlink" x="0px" y="0px"
	 viewBox="0 0 358.9 358.9" style="enable-background:new 0 0 358.9 358.9;" xml:space="preserve">
<style type="text/css">
	.st0{fill:#F4F4F4;}
	.st1{fill:#FA9295;}
	.st2{fill:none;stroke:#464654;stroke-width:5.29;stroke-miterlimit:10;}
	.st3{fill:#F4F4F4;stroke:#464654;stroke-width:5.29;stroke-miterlimit:10;}
	.st4{fill:#FBFCFB;stroke:#464654;stroke-width:5.29;stroke-miterlimit:10;}
	.st5{fill:none;stroke:#464654;stroke-width:5.29;stroke-linecap:round;stroke-miterlimit:10;}
</style>
<path class="st0" d="M41.2,319.6l-1.5-1.6c-5.7-5.9-5.6-15.3,0.2-21c0.1-0.1,0.1-0.1,0.2-0.2l133.6-113.1c6.1-5.7,9.1-12.4,14.9-6.4
	l1.6,1.6c5.8,5.9-1.1,8.7-7.1,14.4L62.8,320.1C56.7,325.8,47.1,325.6,41.2,319.6z"/>
<path class="st1" d="M53.8,287.8c0,0,3,14.9,18.7,19.2l-4.7,8.3l-6.8,6.2l-8.8,2.7L39.7,318l-4.2-10.2l4.7-11l9.7-8.2L53.8,287.8z"
	/>
<path class="st2" d="M41.2,319.6l-1.5-1.6c-5.7-5.9-5.6-15.3,0.2-21c0.1-0.1,0.1-0.1,0.2-0.2l133.6-113.1c6.1-5.7,9.1-12.4,14.9-6.4
	l1.6,1.6c5.8,5.9-1.1,8.7-7.1,14.4L62.8,320.1C56.7,325.8,47.1,325.6,41.2,319.6z"/>
<path class="st3" d="M208.9,73.9c-10.2,16.9-19,35.5-27,53.6c-6,13.5-11.9,29.5-7.1,44.3c2.3,6.7,6.7,12.6,12.4,16.8
	c18.8,14.3,44.6,6.4,64.1-2c36.6-15.7,81.1-39.5,88-82.4c3-18.9-3.2-38.1-16.8-51.7C296.4,25.6,253,27,226.1,51.9
	C219.4,58.4,213.6,65.8,208.9,73.9z"/>
<path class="st4" d="M322.6,52.4c4.5,53-15.9,110-136.4,135.3"/>
<path class="st4" d="M323.3,53.2c-53.6-6.6-112.4,11.2-143,128.5"/>
<path class="st2" d="M323.3,53.2c-27,38.9-42.6,70.5-139.1,131.5"/>
<path class="st2" d="M321.8,51.7c-40.6,25-73.4,39-139.2,131.4"/>
<path class="st0" d="M54.2,90.9l31.9-32.1c5.9-6,15.6-6,21.6-0.1l197.6,196.4c6,5.9,6,15.6,0.1,21.6l-31.9,32.1
	c-5.9,6-15.6,6-21.6,0.1L54.3,112.4C48.3,106.5,48.3,96.9,54.2,90.9z"/>
<path class="st1" d="M278,304.2l-9.6,9.8c-6.7,6.7-17,7.4-23,1.5L47.8,119.1c-6-5.9-5.3-16.3,1.3-23l11.3-11.3
	c0,0,54.1,46.6,70.7,63.4c28.2,28.5,76,92.7,104.2,121.1C244.9,278.9,278,304.2,278,304.2z"/>
<path class="st2" d="M300.1,282l19.6,19.5c4.2,4.2,4.2,11,0,15.2l-6.1,6.2c-4.2,4.2-11,4.2-15.2,0l-19.6-19.5"/>
<path class="st2" d="M80.1,63.4l-19-18.8c-4.2-4.2-11-4.2-15.2,0l-6.1,6.2c-4.2,4.2-4.2,11,0,15.2l19.7,19.6"/>
<path class="st2" d="M54.2,90.9l31.9-32.1c5.9-6,15.6-6,21.6-0.1l197.6,196.4c6,5.9,6,15.6,0.1,21.6l-31.9,32.1
	c-5.9,6-15.6,6-21.6,0.1L54.3,112.4C48.3,106.5,48.3,96.9,54.2,90.9z"/>
<line class="st5" x1="108.1" y1="83.7" x2="227.1" y2="201.9"/>
</svg>
